%
M48
M72
T01C0.02362
T02C0.03150
T03C0.04000
%
T01
X17000Y76000
X28000Y90000
X34000Y90000
X45000Y83000
X51000Y83000
X56000Y81000
X67000Y101000
X89000Y82000
X94000Y82000
X105000Y102000
X104000Y110000
X95000Y114000
X91000Y117000
X86000Y121000
X102000Y120000
X111000Y128000
X124000Y97000
X143000Y87000
X143000Y81000
X132000Y69000
X136000Y65000
X98000Y59000
X164000Y26000
X149000Y121000
X95000Y161000
X90000Y159000
X59000Y146000
X30000Y128000
X30000Y123000
X30000Y118000
X30000Y112000
X13000Y159000
X17000Y179000
X35000Y179000
X67000Y202000
X128000Y181000
T02
X136693Y178433
X136693Y170559
X136693Y162685
X136693Y154811
X136693Y146937
X136693Y139063
X136693Y131189
X136693Y123315
X136693Y115441
X136693Y107567
X223307Y107567
X223307Y115441
X223307Y123315
X223307Y131189
X223307Y139063
X223307Y146937
X223307Y154811
X223307Y162685
X223307Y170559
X223307Y178433
T03
X13000Y16000
X23000Y16000
X33000Y16000
X43000Y16000
X53000Y16000
X63000Y16000
X73000Y16000
X79000Y34000
X89000Y34000
X99000Y34000
X109000Y34000
X119000Y34000
X129000Y34000
X139000Y34000
X149000Y34000
X159000Y34000
X63000Y34000
X53000Y34000
X43000Y34000
X33000Y34000
X23000Y34000
X13000Y34000
X12000Y98000
X12000Y108000
X12000Y118000
X12000Y128000
X12000Y138000
X12000Y148000
X12000Y198000
X22000Y198000
X32000Y198000
X42000Y198000
X101000Y142000
X111000Y142000
X121000Y142000
M30
