G75*
%MOIN*%
%OFA0B0*%
%FSLAX25Y25*%
%IPPOS*%
%LPD*%
%AMOC8*
5,1,8,0,0,1.08239X$1,22.5*
%
%ADD10C,0.06000*%
%ADD11OC8,0.06000*%
%ADD12C,0.05150*%
%ADD13C,0.01600*%
%ADD14C,0.03962*%
%ADD15C,0.01000*%
D10*
X0013000Y0013000D02*
X0013000Y0019000D01*
X0023000Y0019000D02*
X0023000Y0013000D01*
X0033000Y0013000D02*
X0033000Y0019000D01*
X0043000Y0019000D02*
X0043000Y0013000D01*
X0053000Y0013000D02*
X0053000Y0019000D01*
X0063000Y0019000D02*
X0063000Y0013000D01*
X0073000Y0013000D02*
X0073000Y0019000D01*
X0079000Y0031000D02*
X0079000Y0037000D01*
X0089000Y0037000D02*
X0089000Y0031000D01*
X0099000Y0031000D02*
X0099000Y0037000D01*
X0109000Y0037000D02*
X0109000Y0031000D01*
X0119000Y0031000D02*
X0119000Y0037000D01*
X0129000Y0037000D02*
X0129000Y0031000D01*
X0139000Y0031000D02*
X0139000Y0037000D01*
X0149000Y0037000D02*
X0149000Y0031000D01*
X0159000Y0031000D02*
X0159000Y0037000D01*
X0121000Y0139000D02*
X0121000Y0145000D01*
X0111000Y0145000D02*
X0111000Y0139000D01*
X0101000Y0139000D02*
X0101000Y0145000D01*
X0042000Y0195000D02*
X0042000Y0201000D01*
X0032000Y0201000D02*
X0032000Y0195000D01*
X0022000Y0195000D02*
X0022000Y0201000D01*
X0012000Y0201000D02*
X0012000Y0195000D01*
X0015000Y0148000D02*
X0009000Y0148000D01*
X0009000Y0138000D02*
X0015000Y0138000D01*
X0015000Y0128000D02*
X0009000Y0128000D01*
X0009000Y0118000D02*
X0015000Y0118000D01*
X0015000Y0108000D02*
X0009000Y0108000D01*
X0009000Y0098000D02*
X0015000Y0098000D01*
D11*
X0013000Y0034000D03*
X0023000Y0034000D03*
X0033000Y0034000D03*
X0043000Y0034000D03*
X0053000Y0034000D03*
X0063000Y0034000D03*
D12*
X0136693Y0107567D03*
X0136693Y0115441D03*
X0136693Y0123315D03*
X0136693Y0131189D03*
X0136693Y0139063D03*
X0136693Y0146937D03*
X0136693Y0154811D03*
X0136693Y0162685D03*
X0136693Y0170559D03*
X0136693Y0178433D03*
X0223307Y0178433D03*
X0223307Y0170559D03*
X0223307Y0162685D03*
X0223307Y0154811D03*
X0223307Y0146937D03*
X0223307Y0139063D03*
X0223307Y0131189D03*
X0223307Y0123315D03*
X0223307Y0115441D03*
X0223307Y0107567D03*
D13*
X0006000Y0094777D02*
X0006000Y0006000D01*
X0229901Y0006000D01*
X0229901Y0206000D01*
X0054041Y0206000D01*
X0056666Y0203900D01*
X0064127Y0203900D01*
X0064134Y0203915D01*
X0065085Y0204866D01*
X0066327Y0205381D01*
X0067673Y0205381D01*
X0068915Y0204866D01*
X0069866Y0203915D01*
X0070381Y0202673D01*
X0070381Y0201327D01*
X0069866Y0200085D01*
X0068915Y0199134D01*
X0067673Y0198619D01*
X0066327Y0198619D01*
X0065085Y0199134D01*
X0064134Y0200085D01*
X0064127Y0200100D01*
X0056105Y0200100D01*
X0055428Y0200025D01*
X0055334Y0200100D01*
X0055213Y0200100D01*
X0054731Y0200582D01*
X0050334Y0204100D01*
X0045681Y0204100D01*
X0046105Y0203516D01*
X0046448Y0202843D01*
X0046682Y0202124D01*
X0046800Y0201378D01*
X0046800Y0198200D01*
X0042200Y0198200D01*
X0042200Y0197800D01*
X0046800Y0197800D01*
X0046800Y0194622D01*
X0046682Y0193876D01*
X0046448Y0193157D01*
X0046105Y0192484D01*
X0045661Y0191873D01*
X0045127Y0191339D01*
X0044516Y0190895D01*
X0043843Y0190552D01*
X0043124Y0190318D01*
X0042378Y0190200D01*
X0042200Y0190200D01*
X0042200Y0197800D01*
X0041800Y0197800D01*
X0041800Y0190200D01*
X0041622Y0190200D01*
X0040876Y0190318D01*
X0040157Y0190552D01*
X0039484Y0190895D01*
X0038873Y0191339D01*
X0038339Y0191873D01*
X0037895Y0192484D01*
X0037552Y0193157D01*
X0037318Y0193876D01*
X0037200Y0194622D01*
X0037200Y0197800D01*
X0041800Y0197800D01*
X0041800Y0198200D01*
X0037200Y0198200D01*
X0037200Y0201378D01*
X0037225Y0201538D01*
X0036400Y0200713D01*
X0036400Y0194125D01*
X0035730Y0192508D01*
X0034492Y0191270D01*
X0032875Y0190600D01*
X0031125Y0190600D01*
X0029508Y0191270D01*
X0028270Y0192508D01*
X0027600Y0194125D01*
X0027600Y0201875D01*
X0028270Y0203492D01*
X0029508Y0204730D01*
X0031125Y0205400D01*
X0032875Y0205400D01*
X0034492Y0204730D01*
X0034768Y0204455D01*
X0036313Y0206000D01*
X0006000Y0206000D01*
X0006000Y0151753D01*
X0006484Y0152105D01*
X0007157Y0152448D01*
X0007876Y0152682D01*
X0008622Y0152800D01*
X0011800Y0152800D01*
X0011800Y0148200D01*
X0012200Y0148200D01*
X0012200Y0152800D01*
X0015378Y0152800D01*
X0016124Y0152682D01*
X0016843Y0152448D01*
X0017516Y0152105D01*
X0018127Y0151661D01*
X0018661Y0151127D01*
X0019105Y0150516D01*
X0019448Y0149843D01*
X0019682Y0149124D01*
X0019800Y0148378D01*
X0019800Y0148200D01*
X0012200Y0148200D01*
X0012200Y0147800D01*
X0019800Y0147800D01*
X0019800Y0147622D01*
X0019682Y0146876D01*
X0019448Y0146157D01*
X0019105Y0145484D01*
X0018661Y0144873D01*
X0018127Y0144339D01*
X0017516Y0143895D01*
X0016843Y0143552D01*
X0016124Y0143318D01*
X0015378Y0143200D01*
X0012200Y0143200D01*
X0012200Y0147800D01*
X0011800Y0147800D01*
X0011800Y0143200D01*
X0008622Y0143200D01*
X0007876Y0143318D01*
X0007157Y0143552D01*
X0006484Y0143895D01*
X0006000Y0144247D01*
X0006000Y0141223D01*
X0006508Y0141730D01*
X0008125Y0142400D01*
X0015875Y0142400D01*
X0017492Y0141730D01*
X0018730Y0140492D01*
X0019400Y0138875D01*
X0019400Y0137125D01*
X0018730Y0135508D01*
X0017955Y0134732D01*
X0022787Y0129900D01*
X0027127Y0129900D01*
X0027134Y0129915D01*
X0028085Y0130866D01*
X0029327Y0131381D01*
X0030673Y0131381D01*
X0031915Y0130866D01*
X0032866Y0129915D01*
X0033381Y0128673D01*
X0033381Y0127327D01*
X0032866Y0126085D01*
X0032282Y0125500D01*
X0032866Y0124915D01*
X0033381Y0123673D01*
X0033381Y0122327D01*
X0032866Y0121085D01*
X0032282Y0120500D01*
X0032866Y0119915D01*
X0033381Y0118673D01*
X0033381Y0118068D01*
X0057100Y0141787D01*
X0057100Y0143127D01*
X0057085Y0143134D01*
X0056134Y0144085D01*
X0055619Y0145327D01*
X0055619Y0146673D01*
X0056134Y0147915D01*
X0057085Y0148866D01*
X0058327Y0149381D01*
X0059673Y0149381D01*
X0060915Y0148866D01*
X0061866Y0147915D01*
X0062381Y0146673D01*
X0062381Y0145327D01*
X0061866Y0144085D01*
X0060915Y0143134D01*
X0060900Y0143127D01*
X0060900Y0140213D01*
X0033375Y0112688D01*
X0033381Y0112673D01*
X0033381Y0111327D01*
X0032866Y0110085D01*
X0031915Y0109134D01*
X0030673Y0108619D01*
X0029327Y0108619D01*
X0028085Y0109134D01*
X0027134Y0110085D01*
X0027127Y0110100D01*
X0025787Y0110100D01*
X0021787Y0106100D01*
X0018976Y0106100D01*
X0018730Y0105508D01*
X0017492Y0104270D01*
X0015875Y0103600D01*
X0008125Y0103600D01*
X0006508Y0104270D01*
X0006000Y0104777D01*
X0006000Y0101223D01*
X0006508Y0101730D01*
X0008125Y0102400D01*
X0015875Y0102400D01*
X0017492Y0101730D01*
X0018730Y0100492D01*
X0019400Y0098875D01*
X0019400Y0097125D01*
X0018730Y0095508D01*
X0017492Y0094270D01*
X0015875Y0093600D01*
X0008125Y0093600D01*
X0006508Y0094270D01*
X0006000Y0094777D01*
X0006000Y0093714D02*
X0007850Y0093714D01*
X0006000Y0092115D02*
X0025334Y0092115D01*
X0025134Y0091915D02*
X0024619Y0090673D01*
X0024619Y0089327D01*
X0025134Y0088085D01*
X0026085Y0087134D01*
X0026100Y0087127D01*
X0026100Y0086213D01*
X0038100Y0074213D01*
X0038100Y0040787D01*
X0037213Y0039900D01*
X0036100Y0038787D01*
X0036100Y0037123D01*
X0034823Y0038400D01*
X0031177Y0038400D01*
X0028600Y0035823D01*
X0028600Y0032177D01*
X0031177Y0029600D01*
X0034823Y0029600D01*
X0036100Y0030877D01*
X0036100Y0029213D01*
X0039100Y0026213D01*
X0040213Y0025100D01*
X0045413Y0025100D01*
X0045100Y0024787D01*
X0043713Y0023400D01*
X0042125Y0023400D01*
X0040508Y0022730D01*
X0039270Y0021492D01*
X0038600Y0019875D01*
X0038600Y0012125D01*
X0039270Y0010508D01*
X0040508Y0009270D01*
X0042125Y0008600D01*
X0043875Y0008600D01*
X0045492Y0009270D01*
X0046730Y0010508D01*
X0047400Y0012125D01*
X0047400Y0019875D01*
X0046862Y0021175D01*
X0047787Y0022100D01*
X0049877Y0022100D01*
X0049270Y0021492D01*
X0048600Y0019875D01*
X0048600Y0012125D01*
X0049270Y0010508D01*
X0050508Y0009270D01*
X0052125Y0008600D01*
X0053875Y0008600D01*
X0055492Y0009270D01*
X0056730Y0010508D01*
X0057400Y0012125D01*
X0057400Y0019875D01*
X0056730Y0021492D01*
X0056123Y0022100D01*
X0059877Y0022100D01*
X0059270Y0021492D01*
X0058600Y0019875D01*
X0058600Y0012125D01*
X0059270Y0010508D01*
X0060508Y0009270D01*
X0062125Y0008600D01*
X0063875Y0008600D01*
X0065492Y0009270D01*
X0066730Y0010508D01*
X0067400Y0012125D01*
X0067400Y0019875D01*
X0066730Y0021492D01*
X0066455Y0021768D01*
X0073787Y0029100D01*
X0074662Y0029975D01*
X0075270Y0028508D01*
X0076508Y0027270D01*
X0078125Y0026600D01*
X0079875Y0026600D01*
X0081492Y0027270D01*
X0082730Y0028508D01*
X0083400Y0030125D01*
X0083400Y0037875D01*
X0082730Y0039492D01*
X0081492Y0040730D01*
X0079875Y0041400D01*
X0078125Y0041400D01*
X0076508Y0040730D01*
X0075270Y0039492D01*
X0074900Y0038599D01*
X0074900Y0040213D01*
X0083787Y0049100D01*
X0090787Y0049100D01*
X0097312Y0055625D01*
X0097327Y0055619D01*
X0098673Y0055619D01*
X0099915Y0056134D01*
X0100866Y0057085D01*
X0101381Y0058327D01*
X0101381Y0059673D01*
X0100866Y0060915D01*
X0099915Y0061866D01*
X0098673Y0062381D01*
X0097327Y0062381D01*
X0096085Y0061866D01*
X0095900Y0061682D01*
X0095900Y0079127D01*
X0095915Y0079134D01*
X0096866Y0080085D01*
X0097381Y0081327D01*
X0097381Y0082673D01*
X0096866Y0083915D01*
X0095915Y0084866D01*
X0094673Y0085381D01*
X0093327Y0085381D01*
X0092085Y0084866D01*
X0091134Y0083915D01*
X0090619Y0082673D01*
X0090619Y0081327D01*
X0091134Y0080085D01*
X0092085Y0079134D01*
X0092100Y0079127D01*
X0092100Y0061787D01*
X0090100Y0059787D01*
X0086213Y0055900D01*
X0081213Y0055900D01*
X0080100Y0054787D01*
X0068100Y0042787D01*
X0068100Y0032787D01*
X0061213Y0025900D01*
X0057587Y0025900D01*
X0061287Y0029600D01*
X0064823Y0029600D01*
X0067400Y0032177D01*
X0067400Y0035823D01*
X0064823Y0038400D01*
X0061177Y0038400D01*
X0058600Y0035823D01*
X0058600Y0032287D01*
X0055213Y0028900D01*
X0041787Y0028900D01*
X0039900Y0030787D01*
X0039900Y0030877D01*
X0041177Y0029600D01*
X0044823Y0029600D01*
X0047400Y0032177D01*
X0047400Y0035823D01*
X0044900Y0038323D01*
X0044900Y0079619D01*
X0045100Y0079619D01*
X0045100Y0041213D01*
X0046213Y0040100D01*
X0049545Y0036768D01*
X0048600Y0035823D01*
X0048600Y0032177D01*
X0051177Y0029600D01*
X0054823Y0029600D01*
X0057400Y0032177D01*
X0057400Y0035823D01*
X0054823Y0038400D01*
X0053287Y0038400D01*
X0048900Y0042787D01*
X0048900Y0078213D01*
X0050312Y0079625D01*
X0050327Y0079619D01*
X0051673Y0079619D01*
X0052915Y0080134D01*
X0053866Y0081085D01*
X0054381Y0082327D01*
X0054381Y0083673D01*
X0053866Y0084915D01*
X0052915Y0085866D01*
X0051673Y0086381D01*
X0050327Y0086381D01*
X0049085Y0085866D01*
X0048134Y0084915D01*
X0048000Y0084593D01*
X0047866Y0084915D01*
X0046915Y0085866D01*
X0045673Y0086381D01*
X0044327Y0086381D01*
X0043085Y0085866D01*
X0042134Y0084915D01*
X0041619Y0083673D01*
X0041619Y0082327D01*
X0041625Y0082312D01*
X0041100Y0081787D01*
X0041100Y0076587D01*
X0040787Y0076900D01*
X0030234Y0087453D01*
X0030866Y0088085D01*
X0031381Y0089327D01*
X0031381Y0090673D01*
X0030866Y0091915D01*
X0029915Y0092866D01*
X0028673Y0093381D01*
X0027327Y0093381D01*
X0026085Y0092866D01*
X0025134Y0091915D01*
X0024619Y0090517D02*
X0006000Y0090517D01*
X0006000Y0088918D02*
X0024788Y0088918D01*
X0025899Y0087320D02*
X0006000Y0087320D01*
X0006000Y0085721D02*
X0026592Y0085721D01*
X0028190Y0084123D02*
X0006000Y0084123D01*
X0006000Y0082524D02*
X0029789Y0082524D01*
X0031387Y0080926D02*
X0006000Y0080926D01*
X0006000Y0079327D02*
X0032986Y0079327D01*
X0034584Y0077729D02*
X0006000Y0077729D01*
X0006000Y0076130D02*
X0036183Y0076130D01*
X0037781Y0074532D02*
X0006000Y0074532D01*
X0006000Y0072933D02*
X0038100Y0072933D01*
X0038100Y0071334D02*
X0006000Y0071334D01*
X0006000Y0069736D02*
X0038100Y0069736D01*
X0038100Y0068137D02*
X0006000Y0068137D01*
X0006000Y0066539D02*
X0038100Y0066539D01*
X0038100Y0064940D02*
X0006000Y0064940D01*
X0006000Y0063342D02*
X0038100Y0063342D01*
X0038100Y0061743D02*
X0006000Y0061743D01*
X0006000Y0060145D02*
X0038100Y0060145D01*
X0038100Y0058546D02*
X0006000Y0058546D01*
X0006000Y0056948D02*
X0038100Y0056948D01*
X0038100Y0055349D02*
X0006000Y0055349D01*
X0006000Y0053751D02*
X0038100Y0053751D01*
X0038100Y0052152D02*
X0006000Y0052152D01*
X0006000Y0050554D02*
X0038100Y0050554D01*
X0038100Y0048955D02*
X0006000Y0048955D01*
X0006000Y0047357D02*
X0038100Y0047357D01*
X0038100Y0045758D02*
X0006000Y0045758D01*
X0006000Y0044160D02*
X0038100Y0044160D01*
X0038100Y0042561D02*
X0006000Y0042561D01*
X0006000Y0040963D02*
X0038100Y0040963D01*
X0036677Y0039364D02*
X0006000Y0039364D01*
X0006000Y0037766D02*
X0009978Y0037766D01*
X0011012Y0038800D02*
X0008200Y0035988D01*
X0008200Y0034200D01*
X0012800Y0034200D01*
X0012800Y0038800D01*
X0011012Y0038800D01*
X0012800Y0037766D02*
X0013200Y0037766D01*
X0013200Y0038800D02*
X0013200Y0034200D01*
X0012800Y0034200D01*
X0012800Y0033800D01*
X0008200Y0033800D01*
X0008200Y0032012D01*
X0011012Y0029200D01*
X0012800Y0029200D01*
X0012800Y0033800D01*
X0013200Y0033800D01*
X0013200Y0034200D01*
X0017800Y0034200D01*
X0017800Y0035988D01*
X0014988Y0038800D01*
X0013200Y0038800D01*
X0013200Y0036167D02*
X0012800Y0036167D01*
X0012800Y0034569D02*
X0013200Y0034569D01*
X0013200Y0033800D02*
X0017800Y0033800D01*
X0017800Y0032012D01*
X0014988Y0029200D01*
X0013200Y0029200D01*
X0013200Y0033800D01*
X0013200Y0032970D02*
X0012800Y0032970D01*
X0012800Y0031372D02*
X0013200Y0031372D01*
X0013200Y0029773D02*
X0012800Y0029773D01*
X0010439Y0029773D02*
X0006000Y0029773D01*
X0006000Y0028175D02*
X0037138Y0028175D01*
X0036100Y0029773D02*
X0034996Y0029773D01*
X0031004Y0029773D02*
X0025561Y0029773D01*
X0024988Y0029200D02*
X0023200Y0029200D01*
X0023200Y0033800D01*
X0023200Y0034200D01*
X0022800Y0034200D01*
X0022800Y0038800D01*
X0021012Y0038800D01*
X0018200Y0035988D01*
X0018200Y0034200D01*
X0022800Y0034200D01*
X0022800Y0033800D01*
X0018200Y0033800D01*
X0018200Y0032012D01*
X0021012Y0029200D01*
X0022800Y0029200D01*
X0022800Y0033800D01*
X0023200Y0033800D01*
X0027800Y0033800D01*
X0027800Y0032012D01*
X0024988Y0029200D01*
X0023200Y0029773D02*
X0022800Y0029773D01*
X0022800Y0031372D02*
X0023200Y0031372D01*
X0023200Y0032970D02*
X0022800Y0032970D01*
X0023200Y0034200D02*
X0027800Y0034200D01*
X0027800Y0035988D01*
X0024988Y0038800D01*
X0023200Y0038800D01*
X0023200Y0034200D01*
X0023200Y0034569D02*
X0022800Y0034569D01*
X0022800Y0036167D02*
X0023200Y0036167D01*
X0023200Y0037766D02*
X0022800Y0037766D01*
X0019978Y0037766D02*
X0016022Y0037766D01*
X0017621Y0036167D02*
X0018379Y0036167D01*
X0018200Y0034569D02*
X0017800Y0034569D01*
X0017800Y0032970D02*
X0018200Y0032970D01*
X0018840Y0031372D02*
X0017160Y0031372D01*
X0015561Y0029773D02*
X0020439Y0029773D01*
X0022125Y0023400D02*
X0020508Y0022730D01*
X0019270Y0021492D01*
X0018600Y0019875D01*
X0018600Y0012125D01*
X0019270Y0010508D01*
X0020508Y0009270D01*
X0022125Y0008600D01*
X0023875Y0008600D01*
X0025492Y0009270D01*
X0026730Y0010508D01*
X0027400Y0012125D01*
X0027400Y0019875D01*
X0026730Y0021492D01*
X0025492Y0022730D01*
X0023875Y0023400D01*
X0022125Y0023400D01*
X0022074Y0023379D02*
X0013926Y0023379D01*
X0013875Y0023400D02*
X0012125Y0023400D01*
X0010508Y0022730D01*
X0009270Y0021492D01*
X0008600Y0019875D01*
X0008600Y0012125D01*
X0009270Y0010508D01*
X0010508Y0009270D01*
X0012125Y0008600D01*
X0013875Y0008600D01*
X0015492Y0009270D01*
X0016730Y0010508D01*
X0017400Y0012125D01*
X0017400Y0019875D01*
X0016730Y0021492D01*
X0015492Y0022730D01*
X0013875Y0023400D01*
X0012074Y0023379D02*
X0006000Y0023379D01*
X0006000Y0021781D02*
X0009558Y0021781D01*
X0008727Y0020182D02*
X0006000Y0020182D01*
X0006000Y0018584D02*
X0008600Y0018584D01*
X0008600Y0016985D02*
X0006000Y0016985D01*
X0006000Y0015387D02*
X0008600Y0015387D01*
X0008600Y0013788D02*
X0006000Y0013788D01*
X0006000Y0012190D02*
X0008600Y0012190D01*
X0009235Y0010591D02*
X0006000Y0010591D01*
X0006000Y0008993D02*
X0011177Y0008993D01*
X0014823Y0008993D02*
X0021177Y0008993D01*
X0019235Y0010591D02*
X0016765Y0010591D01*
X0017400Y0012190D02*
X0018600Y0012190D01*
X0018600Y0013788D02*
X0017400Y0013788D01*
X0017400Y0015387D02*
X0018600Y0015387D01*
X0018600Y0016985D02*
X0017400Y0016985D01*
X0017400Y0018584D02*
X0018600Y0018584D01*
X0018727Y0020182D02*
X0017273Y0020182D01*
X0016442Y0021781D02*
X0019558Y0021781D01*
X0023926Y0023379D02*
X0031022Y0023379D01*
X0031157Y0023448D02*
X0030484Y0023105D01*
X0029873Y0022661D01*
X0029339Y0022127D01*
X0028895Y0021516D01*
X0028552Y0020843D01*
X0028318Y0020124D01*
X0028200Y0019378D01*
X0028200Y0016200D01*
X0032800Y0016200D01*
X0032800Y0023800D01*
X0032622Y0023800D01*
X0031876Y0023682D01*
X0031157Y0023448D01*
X0032800Y0023379D02*
X0033200Y0023379D01*
X0033200Y0023800D02*
X0033200Y0016200D01*
X0037800Y0016200D01*
X0037800Y0019378D01*
X0037682Y0020124D01*
X0037448Y0020843D01*
X0037105Y0021516D01*
X0036661Y0022127D01*
X0036127Y0022661D01*
X0035516Y0023105D01*
X0034843Y0023448D01*
X0034124Y0023682D01*
X0033378Y0023800D01*
X0033200Y0023800D01*
X0034978Y0023379D02*
X0042074Y0023379D01*
X0039558Y0021781D02*
X0036913Y0021781D01*
X0037663Y0020182D02*
X0038727Y0020182D01*
X0038600Y0018584D02*
X0037800Y0018584D01*
X0037800Y0016985D02*
X0038600Y0016985D01*
X0037800Y0015800D02*
X0033200Y0015800D01*
X0033200Y0016200D01*
X0032800Y0016200D01*
X0032800Y0015800D01*
X0033200Y0015800D01*
X0033200Y0008200D01*
X0033378Y0008200D01*
X0034124Y0008318D01*
X0034843Y0008552D01*
X0035516Y0008895D01*
X0036127Y0009339D01*
X0036661Y0009873D01*
X0037105Y0010484D01*
X0037448Y0011157D01*
X0037682Y0011876D01*
X0037800Y0012622D01*
X0037800Y0015800D01*
X0037800Y0015387D02*
X0038600Y0015387D01*
X0038600Y0013788D02*
X0037800Y0013788D01*
X0037731Y0012190D02*
X0038600Y0012190D01*
X0039235Y0010591D02*
X0037160Y0010591D01*
X0035650Y0008993D02*
X0041177Y0008993D01*
X0044823Y0008993D02*
X0051177Y0008993D01*
X0049235Y0010591D02*
X0046765Y0010591D01*
X0047400Y0012190D02*
X0048600Y0012190D01*
X0048600Y0013788D02*
X0047400Y0013788D01*
X0047400Y0015387D02*
X0048600Y0015387D01*
X0048600Y0016985D02*
X0047400Y0016985D01*
X0047400Y0018584D02*
X0048600Y0018584D01*
X0048727Y0020182D02*
X0047273Y0020182D01*
X0047468Y0021781D02*
X0049558Y0021781D01*
X0045291Y0024978D02*
X0006000Y0024978D01*
X0006000Y0026576D02*
X0038737Y0026576D01*
X0040914Y0029773D02*
X0041004Y0029773D01*
X0044996Y0029773D02*
X0051004Y0029773D01*
X0049406Y0031372D02*
X0046594Y0031372D01*
X0047400Y0032970D02*
X0048600Y0032970D01*
X0048600Y0034569D02*
X0047400Y0034569D01*
X0047055Y0036167D02*
X0048945Y0036167D01*
X0048547Y0037766D02*
X0045457Y0037766D01*
X0044900Y0039364D02*
X0046949Y0039364D01*
X0045350Y0040963D02*
X0044900Y0040963D01*
X0044900Y0042561D02*
X0045100Y0042561D01*
X0045100Y0044160D02*
X0044900Y0044160D01*
X0044900Y0045758D02*
X0045100Y0045758D01*
X0045100Y0047357D02*
X0044900Y0047357D01*
X0044900Y0048955D02*
X0045100Y0048955D01*
X0045100Y0050554D02*
X0044900Y0050554D01*
X0044900Y0052152D02*
X0045100Y0052152D01*
X0045100Y0053751D02*
X0044900Y0053751D01*
X0044900Y0055349D02*
X0045100Y0055349D01*
X0045100Y0056948D02*
X0044900Y0056948D01*
X0044900Y0058546D02*
X0045100Y0058546D01*
X0045100Y0060145D02*
X0044900Y0060145D01*
X0044900Y0061743D02*
X0045100Y0061743D01*
X0045100Y0063342D02*
X0044900Y0063342D01*
X0044900Y0064940D02*
X0045100Y0064940D01*
X0045100Y0066539D02*
X0044900Y0066539D01*
X0044900Y0068137D02*
X0045100Y0068137D01*
X0045100Y0069736D02*
X0044900Y0069736D01*
X0044900Y0071334D02*
X0045100Y0071334D01*
X0045100Y0072933D02*
X0044900Y0072933D01*
X0044900Y0074532D02*
X0045100Y0074532D01*
X0045100Y0076130D02*
X0044900Y0076130D01*
X0044900Y0077729D02*
X0045100Y0077729D01*
X0045100Y0079327D02*
X0044900Y0079327D01*
X0048900Y0077729D02*
X0092100Y0077729D01*
X0092100Y0076130D02*
X0048900Y0076130D01*
X0048900Y0074532D02*
X0092100Y0074532D01*
X0092100Y0072933D02*
X0048900Y0072933D01*
X0048900Y0071334D02*
X0092100Y0071334D01*
X0092100Y0069736D02*
X0048900Y0069736D01*
X0048900Y0068137D02*
X0092100Y0068137D01*
X0092100Y0066539D02*
X0048900Y0066539D01*
X0048900Y0064940D02*
X0092100Y0064940D01*
X0092100Y0063342D02*
X0048900Y0063342D01*
X0048900Y0061743D02*
X0092056Y0061743D01*
X0090458Y0060145D02*
X0048900Y0060145D01*
X0048900Y0058546D02*
X0088859Y0058546D01*
X0087261Y0056948D02*
X0048900Y0056948D01*
X0048900Y0055349D02*
X0080662Y0055349D01*
X0079064Y0053751D02*
X0048900Y0053751D01*
X0048900Y0052152D02*
X0077465Y0052152D01*
X0075867Y0050554D02*
X0048900Y0050554D01*
X0048900Y0048955D02*
X0074268Y0048955D01*
X0072670Y0047357D02*
X0048900Y0047357D01*
X0048900Y0045758D02*
X0071071Y0045758D01*
X0069473Y0044160D02*
X0048900Y0044160D01*
X0049126Y0042561D02*
X0068100Y0042561D01*
X0068100Y0040963D02*
X0050724Y0040963D01*
X0052323Y0039364D02*
X0068100Y0039364D01*
X0068100Y0037766D02*
X0065457Y0037766D01*
X0067055Y0036167D02*
X0068100Y0036167D01*
X0068100Y0034569D02*
X0067400Y0034569D01*
X0067400Y0032970D02*
X0068100Y0032970D01*
X0066685Y0031372D02*
X0066594Y0031372D01*
X0065086Y0029773D02*
X0064996Y0029773D01*
X0063488Y0028175D02*
X0059862Y0028175D01*
X0058263Y0026576D02*
X0061889Y0026576D01*
X0059558Y0021781D02*
X0056442Y0021781D01*
X0057273Y0020182D02*
X0058727Y0020182D01*
X0058600Y0018584D02*
X0057400Y0018584D01*
X0057400Y0016985D02*
X0058600Y0016985D01*
X0058600Y0015387D02*
X0057400Y0015387D01*
X0057400Y0013788D02*
X0058600Y0013788D01*
X0058600Y0012190D02*
X0057400Y0012190D01*
X0056765Y0010591D02*
X0059235Y0010591D01*
X0061177Y0008993D02*
X0054823Y0008993D01*
X0064823Y0008993D02*
X0071177Y0008993D01*
X0070508Y0009270D02*
X0072125Y0008600D01*
X0073875Y0008600D01*
X0075492Y0009270D01*
X0076730Y0010508D01*
X0077400Y0012125D01*
X0077400Y0019875D01*
X0076730Y0021492D01*
X0075492Y0022730D01*
X0073875Y0023400D01*
X0072125Y0023400D01*
X0070508Y0022730D01*
X0069270Y0021492D01*
X0068600Y0019875D01*
X0068600Y0012125D01*
X0069270Y0010508D01*
X0070508Y0009270D01*
X0069235Y0010591D02*
X0066765Y0010591D01*
X0067400Y0012190D02*
X0068600Y0012190D01*
X0068600Y0013788D02*
X0067400Y0013788D01*
X0067400Y0015387D02*
X0068600Y0015387D01*
X0068600Y0016985D02*
X0067400Y0016985D01*
X0067400Y0018584D02*
X0068600Y0018584D01*
X0068727Y0020182D02*
X0067273Y0020182D01*
X0066468Y0021781D02*
X0069558Y0021781D01*
X0068066Y0023379D02*
X0072074Y0023379D01*
X0073926Y0023379D02*
X0229901Y0023379D01*
X0229901Y0021781D02*
X0076442Y0021781D01*
X0077273Y0020182D02*
X0229901Y0020182D01*
X0229901Y0018584D02*
X0077400Y0018584D01*
X0077400Y0016985D02*
X0229901Y0016985D01*
X0229901Y0015387D02*
X0077400Y0015387D01*
X0077400Y0013788D02*
X0229901Y0013788D01*
X0229901Y0012190D02*
X0077400Y0012190D01*
X0076765Y0010591D02*
X0229901Y0010591D01*
X0229901Y0008993D02*
X0074823Y0008993D01*
X0069665Y0024978D02*
X0229901Y0024978D01*
X0229901Y0026576D02*
X0140891Y0026576D01*
X0140843Y0026552D02*
X0141516Y0026895D01*
X0142127Y0027339D01*
X0142661Y0027873D01*
X0143105Y0028484D01*
X0143448Y0029157D01*
X0143682Y0029876D01*
X0143800Y0030622D01*
X0143800Y0033800D01*
X0139200Y0033800D01*
X0139200Y0034200D01*
X0143800Y0034200D01*
X0143800Y0037378D01*
X0143682Y0038124D01*
X0143448Y0038843D01*
X0143105Y0039516D01*
X0142661Y0040127D01*
X0142127Y0040661D01*
X0141516Y0041105D01*
X0140843Y0041448D01*
X0140124Y0041682D01*
X0139378Y0041800D01*
X0139200Y0041800D01*
X0139200Y0034200D01*
X0138800Y0034200D01*
X0138800Y0041800D01*
X0138622Y0041800D01*
X0137876Y0041682D01*
X0137157Y0041448D01*
X0136484Y0041105D01*
X0135873Y0040661D01*
X0135339Y0040127D01*
X0134895Y0039516D01*
X0134552Y0038843D01*
X0134318Y0038124D01*
X0134200Y0037378D01*
X0134200Y0034200D01*
X0138800Y0034200D01*
X0138800Y0033800D01*
X0139200Y0033800D01*
X0139200Y0026200D01*
X0139378Y0026200D01*
X0140124Y0026318D01*
X0140843Y0026552D01*
X0139200Y0026576D02*
X0138800Y0026576D01*
X0138800Y0026200D02*
X0138800Y0033800D01*
X0134200Y0033800D01*
X0134200Y0030622D01*
X0134318Y0029876D01*
X0134552Y0029157D01*
X0134895Y0028484D01*
X0135339Y0027873D01*
X0135873Y0027339D01*
X0136484Y0026895D01*
X0137157Y0026552D01*
X0137876Y0026318D01*
X0138622Y0026200D01*
X0138800Y0026200D01*
X0137109Y0026576D02*
X0071263Y0026576D01*
X0072862Y0028175D02*
X0075603Y0028175D01*
X0074746Y0029773D02*
X0074460Y0029773D01*
X0082397Y0028175D02*
X0085603Y0028175D01*
X0085270Y0028508D02*
X0086508Y0027270D01*
X0088125Y0026600D01*
X0089875Y0026600D01*
X0091492Y0027270D01*
X0092730Y0028508D01*
X0093400Y0030125D01*
X0093400Y0037875D01*
X0092730Y0039492D01*
X0091492Y0040730D01*
X0089875Y0041400D01*
X0088125Y0041400D01*
X0086508Y0040730D01*
X0085270Y0039492D01*
X0084600Y0037875D01*
X0084600Y0030125D01*
X0085270Y0028508D01*
X0084746Y0029773D02*
X0083254Y0029773D01*
X0083400Y0031372D02*
X0084600Y0031372D01*
X0084600Y0032970D02*
X0083400Y0032970D01*
X0083400Y0034569D02*
X0084600Y0034569D01*
X0084600Y0036167D02*
X0083400Y0036167D01*
X0083400Y0037766D02*
X0084600Y0037766D01*
X0085217Y0039364D02*
X0082783Y0039364D01*
X0080931Y0040963D02*
X0087069Y0040963D01*
X0090931Y0040963D02*
X0097069Y0040963D01*
X0096508Y0040730D02*
X0098125Y0041400D01*
X0099875Y0041400D01*
X0101492Y0040730D01*
X0102730Y0039492D01*
X0103400Y0037875D01*
X0103400Y0030125D01*
X0102730Y0028508D01*
X0101492Y0027270D01*
X0099875Y0026600D01*
X0098125Y0026600D01*
X0096508Y0027270D01*
X0095270Y0028508D01*
X0094600Y0030125D01*
X0094600Y0037875D01*
X0095270Y0039492D01*
X0096508Y0040730D01*
X0095217Y0039364D02*
X0092783Y0039364D01*
X0093400Y0037766D02*
X0094600Y0037766D01*
X0094600Y0036167D02*
X0093400Y0036167D01*
X0093400Y0034569D02*
X0094600Y0034569D01*
X0094600Y0032970D02*
X0093400Y0032970D01*
X0093400Y0031372D02*
X0094600Y0031372D01*
X0094746Y0029773D02*
X0093254Y0029773D01*
X0092397Y0028175D02*
X0095603Y0028175D01*
X0102397Y0028175D02*
X0105603Y0028175D01*
X0105270Y0028508D02*
X0106508Y0027270D01*
X0108125Y0026600D01*
X0109875Y0026600D01*
X0111492Y0027270D01*
X0112730Y0028508D01*
X0113400Y0030125D01*
X0113400Y0037875D01*
X0112730Y0039492D01*
X0111492Y0040730D01*
X0109875Y0041400D01*
X0108125Y0041400D01*
X0106508Y0040730D01*
X0105270Y0039492D01*
X0104600Y0037875D01*
X0104600Y0030125D01*
X0105270Y0028508D01*
X0104746Y0029773D02*
X0103254Y0029773D01*
X0103400Y0031372D02*
X0104600Y0031372D01*
X0104600Y0032970D02*
X0103400Y0032970D01*
X0103400Y0034569D02*
X0104600Y0034569D01*
X0104600Y0036167D02*
X0103400Y0036167D01*
X0103400Y0037766D02*
X0104600Y0037766D01*
X0105217Y0039364D02*
X0102783Y0039364D01*
X0100931Y0040963D02*
X0107069Y0040963D01*
X0110931Y0040963D02*
X0117069Y0040963D01*
X0116508Y0040730D02*
X0115270Y0039492D01*
X0114600Y0037875D01*
X0114600Y0030125D01*
X0115270Y0028508D01*
X0116508Y0027270D01*
X0118125Y0026600D01*
X0119875Y0026600D01*
X0121492Y0027270D01*
X0122730Y0028508D01*
X0123400Y0030125D01*
X0123400Y0037875D01*
X0122730Y0039492D01*
X0121492Y0040730D01*
X0119875Y0041400D01*
X0118125Y0041400D01*
X0116508Y0040730D01*
X0115217Y0039364D02*
X0112783Y0039364D01*
X0113400Y0037766D02*
X0114600Y0037766D01*
X0114600Y0036167D02*
X0113400Y0036167D01*
X0113400Y0034569D02*
X0114600Y0034569D01*
X0114600Y0032970D02*
X0113400Y0032970D01*
X0113400Y0031372D02*
X0114600Y0031372D01*
X0114746Y0029773D02*
X0113254Y0029773D01*
X0112397Y0028175D02*
X0115603Y0028175D01*
X0122397Y0028175D02*
X0125603Y0028175D01*
X0125270Y0028508D02*
X0126508Y0027270D01*
X0128125Y0026600D01*
X0129875Y0026600D01*
X0131492Y0027270D01*
X0132730Y0028508D01*
X0133400Y0030125D01*
X0133400Y0037875D01*
X0132730Y0039492D01*
X0131492Y0040730D01*
X0129875Y0041400D01*
X0128125Y0041400D01*
X0126508Y0040730D01*
X0125270Y0039492D01*
X0124600Y0037875D01*
X0124600Y0030125D01*
X0125270Y0028508D01*
X0124746Y0029773D02*
X0123254Y0029773D01*
X0123400Y0031372D02*
X0124600Y0031372D01*
X0124600Y0032970D02*
X0123400Y0032970D01*
X0123400Y0034569D02*
X0124600Y0034569D01*
X0124600Y0036167D02*
X0123400Y0036167D01*
X0123400Y0037766D02*
X0124600Y0037766D01*
X0125217Y0039364D02*
X0122783Y0039364D01*
X0120931Y0040963D02*
X0127069Y0040963D01*
X0130931Y0040963D02*
X0136288Y0040963D01*
X0134818Y0039364D02*
X0132783Y0039364D01*
X0133400Y0037766D02*
X0134261Y0037766D01*
X0134200Y0036167D02*
X0133400Y0036167D01*
X0133400Y0034569D02*
X0134200Y0034569D01*
X0134200Y0032970D02*
X0133400Y0032970D01*
X0133400Y0031372D02*
X0134200Y0031372D01*
X0134352Y0029773D02*
X0133254Y0029773D01*
X0132397Y0028175D02*
X0135120Y0028175D01*
X0138800Y0028175D02*
X0139200Y0028175D01*
X0139200Y0029773D02*
X0138800Y0029773D01*
X0138800Y0031372D02*
X0139200Y0031372D01*
X0139200Y0032970D02*
X0138800Y0032970D01*
X0138800Y0034569D02*
X0139200Y0034569D01*
X0139200Y0036167D02*
X0138800Y0036167D01*
X0138800Y0037766D02*
X0139200Y0037766D01*
X0139200Y0039364D02*
X0138800Y0039364D01*
X0138800Y0040963D02*
X0139200Y0040963D01*
X0141712Y0040963D02*
X0147069Y0040963D01*
X0146508Y0040730D02*
X0145270Y0039492D01*
X0144600Y0037875D01*
X0144600Y0030125D01*
X0145270Y0028508D01*
X0146508Y0027270D01*
X0148125Y0026600D01*
X0149875Y0026600D01*
X0151492Y0027270D01*
X0152730Y0028508D01*
X0153400Y0030125D01*
X0153400Y0037875D01*
X0152730Y0039492D01*
X0151492Y0040730D01*
X0149875Y0041400D01*
X0148125Y0041400D01*
X0146508Y0040730D01*
X0145217Y0039364D02*
X0143182Y0039364D01*
X0143739Y0037766D02*
X0144600Y0037766D01*
X0144600Y0036167D02*
X0143800Y0036167D01*
X0143800Y0034569D02*
X0144600Y0034569D01*
X0144600Y0032970D02*
X0143800Y0032970D01*
X0143800Y0031372D02*
X0144600Y0031372D01*
X0144746Y0029773D02*
X0143648Y0029773D01*
X0142880Y0028175D02*
X0145603Y0028175D01*
X0152397Y0028175D02*
X0155603Y0028175D01*
X0155270Y0028508D02*
X0154600Y0030125D01*
X0154600Y0037875D01*
X0155270Y0039492D01*
X0156508Y0040730D01*
X0158125Y0041400D01*
X0159875Y0041400D01*
X0161492Y0040730D01*
X0162730Y0039492D01*
X0163400Y0037875D01*
X0163400Y0030125D01*
X0162730Y0028508D01*
X0161492Y0027270D01*
X0159875Y0026600D01*
X0158125Y0026600D01*
X0156508Y0027270D01*
X0155270Y0028508D01*
X0154746Y0029773D02*
X0153254Y0029773D01*
X0153400Y0031372D02*
X0154600Y0031372D01*
X0154600Y0032970D02*
X0153400Y0032970D01*
X0153400Y0034569D02*
X0154600Y0034569D01*
X0154600Y0036167D02*
X0153400Y0036167D01*
X0153400Y0037766D02*
X0154600Y0037766D01*
X0155217Y0039364D02*
X0152783Y0039364D01*
X0150931Y0040963D02*
X0157069Y0040963D01*
X0160931Y0040963D02*
X0229901Y0040963D01*
X0229901Y0042561D02*
X0077248Y0042561D01*
X0077069Y0040963D02*
X0075650Y0040963D01*
X0075217Y0039364D02*
X0074900Y0039364D01*
X0078847Y0044160D02*
X0229901Y0044160D01*
X0229901Y0045758D02*
X0080445Y0045758D01*
X0082044Y0047357D02*
X0229901Y0047357D01*
X0229901Y0048955D02*
X0083642Y0048955D01*
X0092241Y0050554D02*
X0229901Y0050554D01*
X0229901Y0052152D02*
X0093839Y0052152D01*
X0095438Y0053751D02*
X0229901Y0053751D01*
X0229901Y0055349D02*
X0097036Y0055349D01*
X0100729Y0056948D02*
X0229901Y0056948D01*
X0229901Y0058546D02*
X0101381Y0058546D01*
X0101185Y0060145D02*
X0229901Y0060145D01*
X0229901Y0061743D02*
X0136973Y0061743D01*
X0136673Y0061619D02*
X0137915Y0062134D01*
X0138866Y0063085D01*
X0139381Y0064327D01*
X0139381Y0065673D01*
X0138866Y0066915D01*
X0138734Y0067047D01*
X0148787Y0077100D01*
X0149900Y0078213D01*
X0149900Y0084787D01*
X0146900Y0087787D01*
X0145933Y0088754D01*
X0145866Y0088915D01*
X0144915Y0089866D01*
X0143673Y0090381D01*
X0142327Y0090381D01*
X0141085Y0089866D01*
X0140134Y0088915D01*
X0139619Y0087673D01*
X0139619Y0086327D01*
X0140134Y0085085D01*
X0141085Y0084134D01*
X0141407Y0084000D01*
X0141085Y0083866D01*
X0140134Y0082915D01*
X0139619Y0081673D01*
X0139619Y0080327D01*
X0139625Y0080312D01*
X0131694Y0072381D01*
X0131327Y0072381D01*
X0130085Y0071866D01*
X0129134Y0070915D01*
X0128619Y0069673D01*
X0128619Y0068327D01*
X0129134Y0067085D01*
X0130085Y0066134D01*
X0131327Y0065619D01*
X0132619Y0065619D01*
X0132619Y0064327D01*
X0133134Y0063085D01*
X0134085Y0062134D01*
X0135327Y0061619D01*
X0136673Y0061619D01*
X0135027Y0061743D02*
X0100038Y0061743D01*
X0095962Y0061743D02*
X0095900Y0061743D01*
X0095900Y0063342D02*
X0133027Y0063342D01*
X0132619Y0064940D02*
X0095900Y0064940D01*
X0095900Y0066539D02*
X0129679Y0066539D01*
X0128698Y0068137D02*
X0095900Y0068137D01*
X0095900Y0069736D02*
X0128645Y0069736D01*
X0129553Y0071334D02*
X0095900Y0071334D01*
X0095900Y0072933D02*
X0132246Y0072933D01*
X0133845Y0074532D02*
X0095900Y0074532D01*
X0095900Y0076130D02*
X0135443Y0076130D01*
X0137042Y0077729D02*
X0095900Y0077729D01*
X0096109Y0079327D02*
X0138640Y0079327D01*
X0139619Y0080926D02*
X0097215Y0080926D01*
X0097381Y0082524D02*
X0139972Y0082524D01*
X0141111Y0084123D02*
X0096659Y0084123D01*
X0091341Y0084123D02*
X0054195Y0084123D01*
X0054381Y0082524D02*
X0090619Y0082524D01*
X0090785Y0080926D02*
X0053707Y0080926D01*
X0050014Y0079327D02*
X0091891Y0079327D01*
X0109001Y0095312D02*
X0018535Y0095312D01*
X0019311Y0096911D02*
X0107402Y0096911D01*
X0105804Y0098509D02*
X0019400Y0098509D01*
X0018889Y0100108D02*
X0102124Y0100108D01*
X0102134Y0100085D02*
X0103085Y0099134D01*
X0104327Y0098619D01*
X0105673Y0098619D01*
X0105688Y0098625D01*
X0109213Y0095100D01*
X0121127Y0095100D01*
X0121134Y0095085D01*
X0122085Y0094134D01*
X0123327Y0093619D01*
X0124673Y0093619D01*
X0125915Y0094134D01*
X0126866Y0095085D01*
X0127381Y0096327D01*
X0127381Y0097673D01*
X0126866Y0098915D01*
X0125915Y0099866D01*
X0124673Y0100381D01*
X0123327Y0100381D01*
X0122085Y0099866D01*
X0121134Y0098915D01*
X0121127Y0098900D01*
X0110787Y0098900D01*
X0108375Y0101312D01*
X0108381Y0101327D01*
X0108381Y0102673D01*
X0107866Y0103915D01*
X0106915Y0104866D01*
X0106351Y0105100D01*
X0121213Y0105100D01*
X0127213Y0099100D01*
X0138787Y0099100D01*
X0139900Y0100213D01*
X0150900Y0111213D01*
X0150900Y0118127D01*
X0150915Y0118134D01*
X0151866Y0119085D01*
X0152381Y0120327D01*
X0152381Y0121673D01*
X0151866Y0122915D01*
X0150915Y0123866D01*
X0149673Y0124381D01*
X0148327Y0124381D01*
X0147085Y0123866D01*
X0146134Y0122915D01*
X0145619Y0121673D01*
X0145619Y0120327D01*
X0146134Y0119085D01*
X0147085Y0118134D01*
X0147100Y0118127D01*
X0147100Y0112787D01*
X0140980Y0106667D01*
X0141068Y0107223D01*
X0141068Y0107567D01*
X0141068Y0107911D01*
X0140960Y0108591D01*
X0140747Y0109246D01*
X0140435Y0109860D01*
X0140030Y0110417D01*
X0139543Y0110904D01*
X0138986Y0111309D01*
X0138372Y0111621D01*
X0138084Y0111715D01*
X0138944Y0112071D01*
X0140063Y0113189D01*
X0140668Y0114650D01*
X0140668Y0116232D01*
X0140063Y0117692D01*
X0138944Y0118811D01*
X0137575Y0119378D01*
X0138944Y0119945D01*
X0140063Y0121063D01*
X0140668Y0122524D01*
X0140668Y0124106D01*
X0140063Y0125566D01*
X0138944Y0126685D01*
X0137575Y0127252D01*
X0138944Y0127819D01*
X0140063Y0128937D01*
X0140668Y0130398D01*
X0140668Y0131980D01*
X0140063Y0133441D01*
X0138944Y0134559D01*
X0137575Y0135126D01*
X0138944Y0135693D01*
X0140063Y0136811D01*
X0140668Y0138272D01*
X0140668Y0139854D01*
X0140063Y0141315D01*
X0138944Y0142433D01*
X0137575Y0143000D01*
X0138944Y0143567D01*
X0140063Y0144685D01*
X0140668Y0146146D01*
X0140668Y0147728D01*
X0140063Y0149189D01*
X0138944Y0150307D01*
X0137575Y0150874D01*
X0138944Y0151441D01*
X0140063Y0152559D01*
X0140668Y0154020D01*
X0140668Y0155602D01*
X0140063Y0157063D01*
X0138944Y0158181D01*
X0137575Y0158748D01*
X0138944Y0159315D01*
X0140063Y0160433D01*
X0140668Y0161894D01*
X0140668Y0163476D01*
X0140063Y0164937D01*
X0138944Y0166055D01*
X0137575Y0166622D01*
X0138944Y0167189D01*
X0140063Y0168308D01*
X0140668Y0169768D01*
X0140668Y0171350D01*
X0140063Y0172811D01*
X0138944Y0173929D01*
X0137575Y0174496D01*
X0138944Y0175063D01*
X0140063Y0176182D01*
X0140668Y0177642D01*
X0140668Y0179224D01*
X0140063Y0180685D01*
X0138944Y0181803D01*
X0137484Y0182408D01*
X0135902Y0182408D01*
X0134441Y0181803D01*
X0133323Y0180685D01*
X0132718Y0179224D01*
X0132718Y0177642D01*
X0133323Y0176182D01*
X0134441Y0175063D01*
X0135811Y0174496D01*
X0134441Y0173929D01*
X0133323Y0172811D01*
X0132718Y0171350D01*
X0132718Y0169768D01*
X0133323Y0168308D01*
X0134441Y0167189D01*
X0135811Y0166622D01*
X0134441Y0166055D01*
X0133323Y0164937D01*
X0132718Y0163476D01*
X0132718Y0161894D01*
X0133323Y0160433D01*
X0134441Y0159315D01*
X0135811Y0158748D01*
X0134441Y0158181D01*
X0133323Y0157063D01*
X0132718Y0155602D01*
X0132718Y0154020D01*
X0133323Y0152559D01*
X0134441Y0151441D01*
X0135811Y0150874D01*
X0134441Y0150307D01*
X0133323Y0149189D01*
X0132718Y0147728D01*
X0132718Y0146146D01*
X0133323Y0144685D01*
X0134441Y0143567D01*
X0135811Y0143000D01*
X0134441Y0142433D01*
X0133323Y0141315D01*
X0132718Y0139854D01*
X0132718Y0138272D01*
X0133323Y0136811D01*
X0134441Y0135693D01*
X0135811Y0135126D01*
X0134441Y0134559D01*
X0133323Y0133441D01*
X0132718Y0131980D01*
X0132718Y0130398D01*
X0133323Y0128937D01*
X0134441Y0127819D01*
X0135811Y0127252D01*
X0134441Y0126685D01*
X0133323Y0125566D01*
X0132718Y0124106D01*
X0132718Y0122524D01*
X0133323Y0121063D01*
X0134441Y0119945D01*
X0135811Y0119378D01*
X0134441Y0118811D01*
X0133323Y0117692D01*
X0132718Y0116232D01*
X0132718Y0114650D01*
X0133323Y0113189D01*
X0134441Y0112071D01*
X0135302Y0111715D01*
X0135014Y0111621D01*
X0134400Y0111309D01*
X0133843Y0110904D01*
X0133356Y0110417D01*
X0132951Y0109860D01*
X0132639Y0109246D01*
X0132426Y0108591D01*
X0132318Y0107911D01*
X0132318Y0107567D01*
X0136693Y0107567D01*
X0141068Y0107567D01*
X0136693Y0107567D01*
X0136693Y0107567D01*
X0136693Y0103192D01*
X0137037Y0103192D01*
X0137593Y0103280D01*
X0137213Y0102900D01*
X0128787Y0102900D01*
X0123900Y0107787D01*
X0122787Y0108900D01*
X0107787Y0108900D01*
X0107375Y0109312D01*
X0107381Y0109327D01*
X0107381Y0110673D01*
X0106866Y0111915D01*
X0105915Y0112866D01*
X0104673Y0113381D01*
X0103327Y0113381D01*
X0102085Y0112866D01*
X0101134Y0111915D01*
X0100619Y0110673D01*
X0100619Y0109327D01*
X0101134Y0108085D01*
X0102085Y0107134D01*
X0103327Y0106619D01*
X0104673Y0106619D01*
X0104688Y0106625D01*
X0106115Y0105198D01*
X0105673Y0105381D01*
X0104327Y0105381D01*
X0103085Y0104866D01*
X0102134Y0103915D01*
X0101619Y0102673D01*
X0101619Y0101327D01*
X0102134Y0100085D01*
X0101619Y0101706D02*
X0017516Y0101706D01*
X0018126Y0104903D02*
X0103174Y0104903D01*
X0101881Y0103305D02*
X0006000Y0103305D01*
X0006000Y0101706D02*
X0006484Y0101706D01*
X0016150Y0093714D02*
X0123099Y0093714D01*
X0124901Y0093714D02*
X0229901Y0093714D01*
X0229901Y0095312D02*
X0126961Y0095312D01*
X0127381Y0096911D02*
X0229901Y0096911D01*
X0229901Y0098509D02*
X0127035Y0098509D01*
X0126205Y0100108D02*
X0125333Y0100108D01*
X0124607Y0101706D02*
X0108381Y0101706D01*
X0108119Y0103305D02*
X0123008Y0103305D01*
X0121410Y0104903D02*
X0106826Y0104903D01*
X0104811Y0106502D02*
X0022189Y0106502D01*
X0023787Y0108100D02*
X0101127Y0108100D01*
X0100619Y0109699D02*
X0032480Y0109699D01*
X0033369Y0111297D02*
X0092921Y0111297D01*
X0093085Y0111134D02*
X0094327Y0110619D01*
X0095673Y0110619D01*
X0096915Y0111134D01*
X0097866Y0112085D01*
X0098381Y0113327D01*
X0098381Y0114673D01*
X0097866Y0115915D01*
X0096915Y0116866D01*
X0096900Y0116873D01*
X0096900Y0136477D01*
X0097339Y0135873D01*
X0097873Y0135339D01*
X0098484Y0134895D01*
X0099157Y0134552D01*
X0099876Y0134318D01*
X0100622Y0134200D01*
X0100800Y0134200D01*
X0100800Y0141800D01*
X0101200Y0141800D01*
X0101200Y0142200D01*
X0100800Y0142200D01*
X0100800Y0149800D01*
X0100622Y0149800D01*
X0099876Y0149682D01*
X0099157Y0149448D01*
X0098484Y0149105D01*
X0097873Y0148661D01*
X0097339Y0148127D01*
X0096900Y0147523D01*
X0096900Y0158127D01*
X0096915Y0158134D01*
X0097866Y0159085D01*
X0098381Y0160327D01*
X0098381Y0161673D01*
X0097866Y0162915D01*
X0096915Y0163866D01*
X0095673Y0164381D01*
X0094327Y0164381D01*
X0093085Y0163866D01*
X0092134Y0162915D01*
X0091731Y0161943D01*
X0090673Y0162381D01*
X0089327Y0162381D01*
X0088085Y0161866D01*
X0087134Y0160915D01*
X0086619Y0159673D01*
X0086619Y0158327D01*
X0087134Y0157085D01*
X0088085Y0156134D01*
X0088100Y0156127D01*
X0088100Y0154213D01*
X0089100Y0153213D01*
X0089100Y0119873D01*
X0089085Y0119866D01*
X0088134Y0118915D01*
X0087619Y0117673D01*
X0087619Y0116327D01*
X0088134Y0115085D01*
X0089085Y0114134D01*
X0090327Y0113619D01*
X0091619Y0113619D01*
X0091619Y0113327D01*
X0092134Y0112085D01*
X0093085Y0111134D01*
X0091798Y0112896D02*
X0033583Y0112896D01*
X0035181Y0114494D02*
X0088724Y0114494D01*
X0087716Y0116093D02*
X0036780Y0116093D01*
X0038378Y0117691D02*
X0087627Y0117691D01*
X0088508Y0119290D02*
X0039977Y0119290D01*
X0041575Y0120888D02*
X0089100Y0120888D01*
X0089100Y0122487D02*
X0043174Y0122487D01*
X0044772Y0124085D02*
X0089100Y0124085D01*
X0089100Y0125684D02*
X0046371Y0125684D01*
X0047969Y0127282D02*
X0089100Y0127282D01*
X0089100Y0128881D02*
X0049568Y0128881D01*
X0051166Y0130479D02*
X0089100Y0130479D01*
X0089100Y0132078D02*
X0052765Y0132078D01*
X0054363Y0133676D02*
X0089100Y0133676D01*
X0089100Y0135275D02*
X0055962Y0135275D01*
X0057560Y0136873D02*
X0089100Y0136873D01*
X0089100Y0138472D02*
X0059159Y0138472D01*
X0060757Y0140070D02*
X0089100Y0140070D01*
X0089100Y0141669D02*
X0060900Y0141669D01*
X0061049Y0143268D02*
X0089100Y0143268D01*
X0089100Y0144866D02*
X0062190Y0144866D01*
X0062381Y0146465D02*
X0089100Y0146465D01*
X0089100Y0148063D02*
X0061719Y0148063D01*
X0056951Y0143268D02*
X0015804Y0143268D01*
X0017554Y0141669D02*
X0056982Y0141669D01*
X0055384Y0140070D02*
X0018905Y0140070D01*
X0019400Y0138472D02*
X0053785Y0138472D01*
X0052186Y0136873D02*
X0019296Y0136873D01*
X0018497Y0135275D02*
X0050588Y0135275D01*
X0048989Y0133676D02*
X0019011Y0133676D01*
X0020609Y0132078D02*
X0047391Y0132078D01*
X0045792Y0130479D02*
X0032302Y0130479D01*
X0033295Y0128881D02*
X0044194Y0128881D01*
X0042595Y0127282D02*
X0033362Y0127282D01*
X0032465Y0125684D02*
X0040997Y0125684D01*
X0039398Y0124085D02*
X0033210Y0124085D01*
X0033381Y0122487D02*
X0037800Y0122487D01*
X0036201Y0120888D02*
X0032670Y0120888D01*
X0033125Y0119290D02*
X0034603Y0119290D01*
X0027520Y0109699D02*
X0025386Y0109699D01*
X0030666Y0092115D02*
X0229901Y0092115D01*
X0229901Y0090517D02*
X0031381Y0090517D01*
X0031212Y0088918D02*
X0140137Y0088918D01*
X0139619Y0087320D02*
X0030367Y0087320D01*
X0031966Y0085721D02*
X0042940Y0085721D01*
X0041805Y0084123D02*
X0033564Y0084123D01*
X0035163Y0082524D02*
X0041619Y0082524D01*
X0041100Y0080926D02*
X0036761Y0080926D01*
X0038360Y0079327D02*
X0041100Y0079327D01*
X0041100Y0077729D02*
X0039958Y0077729D01*
X0047060Y0085721D02*
X0048940Y0085721D01*
X0053060Y0085721D02*
X0139870Y0085721D01*
X0145863Y0088918D02*
X0229901Y0088918D01*
X0229901Y0087320D02*
X0147367Y0087320D01*
X0148966Y0085721D02*
X0229901Y0085721D01*
X0229901Y0084123D02*
X0149900Y0084123D01*
X0149900Y0082524D02*
X0229901Y0082524D01*
X0229901Y0080926D02*
X0149900Y0080926D01*
X0149900Y0079327D02*
X0229901Y0079327D01*
X0229901Y0077729D02*
X0149416Y0077729D01*
X0148787Y0077100D02*
X0148787Y0077100D01*
X0147817Y0076130D02*
X0229901Y0076130D01*
X0229901Y0074532D02*
X0146219Y0074532D01*
X0144620Y0072933D02*
X0229901Y0072933D01*
X0229901Y0071334D02*
X0143021Y0071334D01*
X0141423Y0069736D02*
X0229901Y0069736D01*
X0229901Y0068137D02*
X0139824Y0068137D01*
X0139022Y0066539D02*
X0229901Y0066539D01*
X0229901Y0064940D02*
X0139381Y0064940D01*
X0138973Y0063342D02*
X0229901Y0063342D01*
X0229901Y0039364D02*
X0162783Y0039364D01*
X0163400Y0037766D02*
X0229901Y0037766D01*
X0229901Y0036167D02*
X0163400Y0036167D01*
X0163400Y0034569D02*
X0229901Y0034569D01*
X0229901Y0032970D02*
X0163400Y0032970D01*
X0163400Y0031372D02*
X0229901Y0031372D01*
X0229901Y0029773D02*
X0163254Y0029773D01*
X0162397Y0028175D02*
X0229901Y0028175D01*
X0229901Y0007394D02*
X0006000Y0007394D01*
X0024823Y0008993D02*
X0030350Y0008993D01*
X0030484Y0008895D02*
X0031157Y0008552D01*
X0031876Y0008318D01*
X0032622Y0008200D01*
X0032800Y0008200D01*
X0032800Y0015800D01*
X0028200Y0015800D01*
X0028200Y0012622D01*
X0028318Y0011876D01*
X0028552Y0011157D01*
X0028895Y0010484D01*
X0029339Y0009873D01*
X0029873Y0009339D01*
X0030484Y0008895D01*
X0032800Y0008993D02*
X0033200Y0008993D01*
X0033200Y0010591D02*
X0032800Y0010591D01*
X0032800Y0012190D02*
X0033200Y0012190D01*
X0033200Y0013788D02*
X0032800Y0013788D01*
X0032800Y0015387D02*
X0033200Y0015387D01*
X0033200Y0016985D02*
X0032800Y0016985D01*
X0032800Y0018584D02*
X0033200Y0018584D01*
X0033200Y0020182D02*
X0032800Y0020182D01*
X0032800Y0021781D02*
X0033200Y0021781D01*
X0029087Y0021781D02*
X0026442Y0021781D01*
X0027273Y0020182D02*
X0028337Y0020182D01*
X0028200Y0018584D02*
X0027400Y0018584D01*
X0027400Y0016985D02*
X0028200Y0016985D01*
X0028200Y0015387D02*
X0027400Y0015387D01*
X0027400Y0013788D02*
X0028200Y0013788D01*
X0028269Y0012190D02*
X0027400Y0012190D01*
X0026765Y0010591D02*
X0028840Y0010591D01*
X0029406Y0031372D02*
X0027160Y0031372D01*
X0027800Y0032970D02*
X0028600Y0032970D01*
X0028600Y0034569D02*
X0027800Y0034569D01*
X0027621Y0036167D02*
X0028945Y0036167D01*
X0030543Y0037766D02*
X0026022Y0037766D01*
X0035457Y0037766D02*
X0036100Y0037766D01*
X0055457Y0037766D02*
X0060543Y0037766D01*
X0058945Y0036167D02*
X0057055Y0036167D01*
X0057400Y0034569D02*
X0058600Y0034569D01*
X0058600Y0032970D02*
X0057400Y0032970D01*
X0057685Y0031372D02*
X0056594Y0031372D01*
X0056086Y0029773D02*
X0054996Y0029773D01*
X0008840Y0031372D02*
X0006000Y0031372D01*
X0006000Y0032970D02*
X0008200Y0032970D01*
X0008200Y0034569D02*
X0006000Y0034569D01*
X0006000Y0036167D02*
X0008379Y0036167D01*
X0097079Y0111297D02*
X0100878Y0111297D01*
X0102156Y0112896D02*
X0098202Y0112896D01*
X0098381Y0114494D02*
X0132783Y0114494D01*
X0132718Y0116093D02*
X0097689Y0116093D01*
X0096900Y0117691D02*
X0099527Y0117691D01*
X0099134Y0118085D02*
X0100085Y0117134D01*
X0101327Y0116619D01*
X0102673Y0116619D01*
X0103915Y0117134D01*
X0104866Y0118085D01*
X0105381Y0119327D01*
X0105381Y0120673D01*
X0105375Y0120688D01*
X0109605Y0124918D01*
X0110327Y0124619D01*
X0111673Y0124619D01*
X0112915Y0125134D01*
X0113866Y0126085D01*
X0114381Y0127327D01*
X0114381Y0128673D01*
X0113866Y0129915D01*
X0112915Y0130866D01*
X0111673Y0131381D01*
X0110327Y0131381D01*
X0109085Y0130866D01*
X0108134Y0129915D01*
X0107619Y0128673D01*
X0107619Y0128306D01*
X0102688Y0123375D01*
X0102673Y0123381D01*
X0101327Y0123381D01*
X0100085Y0122866D01*
X0099134Y0121915D01*
X0098619Y0120673D01*
X0098619Y0119327D01*
X0099134Y0118085D01*
X0098634Y0119290D02*
X0096900Y0119290D01*
X0096900Y0120888D02*
X0098708Y0120888D01*
X0099705Y0122487D02*
X0096900Y0122487D01*
X0096900Y0124085D02*
X0103398Y0124085D01*
X0104997Y0125684D02*
X0096900Y0125684D01*
X0096900Y0127282D02*
X0106595Y0127282D01*
X0107705Y0128881D02*
X0096900Y0128881D01*
X0096900Y0130479D02*
X0108698Y0130479D01*
X0110125Y0134600D02*
X0111875Y0134600D01*
X0113492Y0135270D01*
X0114730Y0136508D01*
X0115400Y0138125D01*
X0115400Y0145875D01*
X0114730Y0147492D01*
X0113492Y0148730D01*
X0111875Y0149400D01*
X0110125Y0149400D01*
X0108508Y0148730D01*
X0107270Y0147492D01*
X0106600Y0145875D01*
X0106600Y0138125D01*
X0107270Y0136508D01*
X0108508Y0135270D01*
X0110125Y0134600D01*
X0108502Y0135275D02*
X0104039Y0135275D01*
X0104127Y0135339D02*
X0104661Y0135873D01*
X0105105Y0136484D01*
X0105448Y0137157D01*
X0105682Y0137876D01*
X0105800Y0138622D01*
X0105800Y0141800D01*
X0101200Y0141800D01*
X0101200Y0134200D01*
X0101378Y0134200D01*
X0102124Y0134318D01*
X0102843Y0134552D01*
X0103516Y0134895D01*
X0104127Y0135339D01*
X0105304Y0136873D02*
X0107118Y0136873D01*
X0106600Y0138472D02*
X0105776Y0138472D01*
X0105800Y0140070D02*
X0106600Y0140070D01*
X0106600Y0141669D02*
X0105800Y0141669D01*
X0105800Y0142200D02*
X0105800Y0145378D01*
X0105682Y0146124D01*
X0105448Y0146843D01*
X0105105Y0147516D01*
X0104661Y0148127D01*
X0104127Y0148661D01*
X0103516Y0149105D01*
X0102843Y0149448D01*
X0102124Y0149682D01*
X0101378Y0149800D01*
X0101200Y0149800D01*
X0101200Y0142200D01*
X0105800Y0142200D01*
X0105800Y0143268D02*
X0106600Y0143268D01*
X0106600Y0144866D02*
X0105800Y0144866D01*
X0105571Y0146465D02*
X0106844Y0146465D01*
X0107841Y0148063D02*
X0104708Y0148063D01*
X0102186Y0149662D02*
X0133796Y0149662D01*
X0132857Y0148063D02*
X0124159Y0148063D01*
X0124730Y0147492D02*
X0123492Y0148730D01*
X0121875Y0149400D01*
X0120125Y0149400D01*
X0118508Y0148730D01*
X0117270Y0147492D01*
X0116600Y0145875D01*
X0116600Y0138125D01*
X0117270Y0136508D01*
X0118508Y0135270D01*
X0120125Y0134600D01*
X0121875Y0134600D01*
X0123492Y0135270D01*
X0124730Y0136508D01*
X0125400Y0138125D01*
X0125400Y0145875D01*
X0124730Y0147492D01*
X0125156Y0146465D02*
X0132718Y0146465D01*
X0133248Y0144866D02*
X0125400Y0144866D01*
X0125400Y0143268D02*
X0135165Y0143268D01*
X0133678Y0141669D02*
X0125400Y0141669D01*
X0125400Y0140070D02*
X0132808Y0140070D01*
X0132718Y0138472D02*
X0125400Y0138472D01*
X0124882Y0136873D02*
X0133298Y0136873D01*
X0135451Y0135275D02*
X0123497Y0135275D01*
X0118502Y0135275D02*
X0113497Y0135275D01*
X0114882Y0136873D02*
X0117118Y0136873D01*
X0116600Y0138472D02*
X0115400Y0138472D01*
X0115400Y0140070D02*
X0116600Y0140070D01*
X0116600Y0141669D02*
X0115400Y0141669D01*
X0115400Y0143268D02*
X0116600Y0143268D01*
X0116600Y0144866D02*
X0115400Y0144866D01*
X0115156Y0146465D02*
X0116844Y0146465D01*
X0117841Y0148063D02*
X0114159Y0148063D01*
X0101200Y0148063D02*
X0100800Y0148063D01*
X0100800Y0146465D02*
X0101200Y0146465D01*
X0101200Y0144866D02*
X0100800Y0144866D01*
X0100800Y0143268D02*
X0101200Y0143268D01*
X0101200Y0141669D02*
X0100800Y0141669D01*
X0100800Y0140070D02*
X0101200Y0140070D01*
X0101200Y0138472D02*
X0100800Y0138472D01*
X0100800Y0136873D02*
X0101200Y0136873D01*
X0101200Y0135275D02*
X0100800Y0135275D01*
X0097961Y0135275D02*
X0096900Y0135275D01*
X0096900Y0133676D02*
X0133559Y0133676D01*
X0132759Y0132078D02*
X0096900Y0132078D01*
X0107174Y0122487D02*
X0132734Y0122487D01*
X0132718Y0124085D02*
X0108772Y0124085D01*
X0105575Y0120888D02*
X0133498Y0120888D01*
X0135598Y0119290D02*
X0105366Y0119290D01*
X0104473Y0117691D02*
X0133323Y0117691D01*
X0137788Y0119290D02*
X0146049Y0119290D01*
X0145619Y0120888D02*
X0139888Y0120888D01*
X0140652Y0122487D02*
X0145956Y0122487D01*
X0147614Y0124085D02*
X0140668Y0124085D01*
X0139945Y0125684D02*
X0220055Y0125684D01*
X0219937Y0125566D02*
X0219332Y0124106D01*
X0219332Y0122524D01*
X0219937Y0121063D01*
X0221056Y0119945D01*
X0222425Y0119378D01*
X0221056Y0118811D01*
X0219937Y0117692D01*
X0219332Y0116232D01*
X0219332Y0114650D01*
X0219937Y0113189D01*
X0221056Y0112071D01*
X0222425Y0111504D01*
X0221056Y0110937D01*
X0219937Y0109818D01*
X0219332Y0108358D01*
X0219332Y0106776D01*
X0219937Y0105315D01*
X0221056Y0104197D01*
X0222516Y0103592D01*
X0224098Y0103592D01*
X0225559Y0104197D01*
X0226677Y0105315D01*
X0227282Y0106776D01*
X0227282Y0108358D01*
X0226677Y0109818D01*
X0225559Y0110937D01*
X0224189Y0111504D01*
X0225559Y0112071D01*
X0226677Y0113189D01*
X0227282Y0114650D01*
X0227282Y0116232D01*
X0226677Y0117692D01*
X0225559Y0118811D01*
X0224189Y0119378D01*
X0225559Y0119945D01*
X0226677Y0121063D01*
X0227282Y0122524D01*
X0227282Y0124106D01*
X0226677Y0125566D01*
X0225559Y0126685D01*
X0224189Y0127252D01*
X0225559Y0127819D01*
X0226677Y0128937D01*
X0227282Y0130398D01*
X0227282Y0131980D01*
X0226677Y0133441D01*
X0225559Y0134559D01*
X0224189Y0135126D01*
X0225559Y0135693D01*
X0226677Y0136811D01*
X0227282Y0138272D01*
X0227282Y0139854D01*
X0226677Y0141315D01*
X0225559Y0142433D01*
X0224189Y0143000D01*
X0225559Y0143567D01*
X0226677Y0144685D01*
X0227282Y0146146D01*
X0227282Y0147728D01*
X0226677Y0149189D01*
X0225559Y0150307D01*
X0224189Y0150874D01*
X0225559Y0151441D01*
X0226677Y0152559D01*
X0227282Y0154020D01*
X0227282Y0155602D01*
X0226677Y0157063D01*
X0225559Y0158181D01*
X0224189Y0158748D01*
X0225559Y0159315D01*
X0226677Y0160433D01*
X0227282Y0161894D01*
X0227282Y0163476D01*
X0226677Y0164937D01*
X0225559Y0166055D01*
X0224189Y0166622D01*
X0225559Y0167189D01*
X0226677Y0168308D01*
X0227282Y0169768D01*
X0227282Y0171350D01*
X0226677Y0172811D01*
X0225559Y0173929D01*
X0224189Y0174496D01*
X0225559Y0175063D01*
X0226677Y0176182D01*
X0227282Y0177642D01*
X0227282Y0179224D01*
X0226677Y0180685D01*
X0225559Y0181803D01*
X0224098Y0182408D01*
X0222516Y0182408D01*
X0221056Y0181803D01*
X0219937Y0180685D01*
X0219332Y0179224D01*
X0219332Y0177642D01*
X0219937Y0176182D01*
X0221056Y0175063D01*
X0222425Y0174496D01*
X0221056Y0173929D01*
X0219937Y0172811D01*
X0219332Y0171350D01*
X0219332Y0169768D01*
X0219937Y0168308D01*
X0221056Y0167189D01*
X0222425Y0166622D01*
X0221056Y0166055D01*
X0219937Y0164937D01*
X0219332Y0163476D01*
X0219332Y0161894D01*
X0219937Y0160433D01*
X0221056Y0159315D01*
X0222425Y0158748D01*
X0221056Y0158181D01*
X0219937Y0157063D01*
X0219332Y0155602D01*
X0219332Y0154020D01*
X0219937Y0152559D01*
X0221056Y0151441D01*
X0222425Y0150874D01*
X0221056Y0150307D01*
X0219937Y0149189D01*
X0219332Y0147728D01*
X0219332Y0146146D01*
X0219937Y0144685D01*
X0221056Y0143567D01*
X0222425Y0143000D01*
X0221056Y0142433D01*
X0219937Y0141315D01*
X0219332Y0139854D01*
X0219332Y0138272D01*
X0219937Y0136811D01*
X0221056Y0135693D01*
X0222425Y0135126D01*
X0221056Y0134559D01*
X0219937Y0133441D01*
X0219332Y0131980D01*
X0219332Y0130398D01*
X0219937Y0128937D01*
X0221056Y0127819D01*
X0222425Y0127252D01*
X0221056Y0126685D01*
X0219937Y0125566D01*
X0219332Y0124085D02*
X0150386Y0124085D01*
X0152044Y0122487D02*
X0219348Y0122487D01*
X0220112Y0120888D02*
X0152381Y0120888D01*
X0151951Y0119290D02*
X0222213Y0119290D01*
X0224402Y0119290D02*
X0229901Y0119290D01*
X0229901Y0120888D02*
X0226502Y0120888D01*
X0227266Y0122487D02*
X0229901Y0122487D01*
X0229901Y0124085D02*
X0227282Y0124085D01*
X0226559Y0125684D02*
X0229901Y0125684D01*
X0229901Y0127282D02*
X0224262Y0127282D01*
X0222352Y0127282D02*
X0137648Y0127282D01*
X0135738Y0127282D02*
X0114362Y0127282D01*
X0114295Y0128881D02*
X0133380Y0128881D01*
X0132718Y0130479D02*
X0113302Y0130479D01*
X0113465Y0125684D02*
X0133441Y0125684D01*
X0140006Y0128881D02*
X0219994Y0128881D01*
X0219332Y0130479D02*
X0140668Y0130479D01*
X0140627Y0132078D02*
X0219373Y0132078D01*
X0220173Y0133676D02*
X0139827Y0133676D01*
X0137934Y0135275D02*
X0222066Y0135275D01*
X0224549Y0135275D02*
X0229901Y0135275D01*
X0229901Y0136873D02*
X0226702Y0136873D01*
X0227282Y0138472D02*
X0229901Y0138472D01*
X0229901Y0140070D02*
X0227192Y0140070D01*
X0226322Y0141669D02*
X0229901Y0141669D01*
X0229901Y0143268D02*
X0224835Y0143268D01*
X0226752Y0144866D02*
X0229901Y0144866D01*
X0229901Y0146465D02*
X0227282Y0146465D01*
X0227143Y0148063D02*
X0229901Y0148063D01*
X0229901Y0149662D02*
X0226204Y0149662D01*
X0225121Y0151260D02*
X0229901Y0151260D01*
X0229901Y0152859D02*
X0226801Y0152859D01*
X0227282Y0154457D02*
X0229901Y0154457D01*
X0229901Y0156056D02*
X0227094Y0156056D01*
X0226085Y0157654D02*
X0229901Y0157654D01*
X0229901Y0159253D02*
X0225407Y0159253D01*
X0226850Y0160851D02*
X0229901Y0160851D01*
X0229901Y0162450D02*
X0227282Y0162450D01*
X0227045Y0164048D02*
X0229901Y0164048D01*
X0229901Y0165647D02*
X0225967Y0165647D01*
X0225614Y0167245D02*
X0229901Y0167245D01*
X0229901Y0168844D02*
X0226899Y0168844D01*
X0227282Y0170442D02*
X0229901Y0170442D01*
X0229901Y0172041D02*
X0226996Y0172041D01*
X0225848Y0173639D02*
X0229901Y0173639D01*
X0229901Y0175238D02*
X0225733Y0175238D01*
X0226948Y0176836D02*
X0229901Y0176836D01*
X0229901Y0178435D02*
X0227282Y0178435D01*
X0226947Y0180033D02*
X0229901Y0180033D01*
X0229901Y0181632D02*
X0225730Y0181632D01*
X0229901Y0183230D02*
X0006000Y0183230D01*
X0006000Y0181632D02*
X0134270Y0181632D01*
X0133053Y0180033D02*
X0006000Y0180033D01*
X0006000Y0178435D02*
X0132718Y0178435D01*
X0133052Y0176836D02*
X0006000Y0176836D01*
X0006000Y0175238D02*
X0134267Y0175238D01*
X0134152Y0173639D02*
X0006000Y0173639D01*
X0006000Y0172041D02*
X0133004Y0172041D01*
X0132718Y0170442D02*
X0006000Y0170442D01*
X0006000Y0168844D02*
X0133101Y0168844D01*
X0134386Y0167245D02*
X0006000Y0167245D01*
X0006000Y0165647D02*
X0134033Y0165647D01*
X0132955Y0164048D02*
X0096476Y0164048D01*
X0098059Y0162450D02*
X0132718Y0162450D01*
X0133150Y0160851D02*
X0098381Y0160851D01*
X0097936Y0159253D02*
X0134593Y0159253D01*
X0133915Y0157654D02*
X0096900Y0157654D01*
X0096900Y0156056D02*
X0132906Y0156056D01*
X0132718Y0154457D02*
X0096900Y0154457D01*
X0096900Y0152859D02*
X0133199Y0152859D01*
X0134879Y0151260D02*
X0096900Y0151260D01*
X0096900Y0149662D02*
X0099814Y0149662D01*
X0100800Y0149662D02*
X0101200Y0149662D01*
X0097292Y0148063D02*
X0096900Y0148063D01*
X0089100Y0149662D02*
X0019507Y0149662D01*
X0018528Y0151260D02*
X0089100Y0151260D01*
X0089100Y0152859D02*
X0006000Y0152859D01*
X0006000Y0154457D02*
X0088100Y0154457D01*
X0088100Y0156056D02*
X0006000Y0156056D01*
X0006000Y0157654D02*
X0086898Y0157654D01*
X0086619Y0159253D02*
X0006000Y0159253D01*
X0006000Y0160851D02*
X0087107Y0160851D01*
X0091941Y0162450D02*
X0006000Y0162450D01*
X0006000Y0164048D02*
X0093524Y0164048D01*
X0056281Y0148063D02*
X0012200Y0148063D01*
X0012200Y0146465D02*
X0011800Y0146465D01*
X0011800Y0144866D02*
X0012200Y0144866D01*
X0012200Y0143268D02*
X0011800Y0143268D01*
X0008196Y0143268D02*
X0006000Y0143268D01*
X0006000Y0141669D02*
X0006446Y0141669D01*
X0011800Y0149662D02*
X0012200Y0149662D01*
X0012200Y0151260D02*
X0011800Y0151260D01*
X0019548Y0146465D02*
X0055619Y0146465D01*
X0055810Y0144866D02*
X0018654Y0144866D01*
X0022208Y0130479D02*
X0027698Y0130479D01*
X0006000Y0184829D02*
X0229901Y0184829D01*
X0229901Y0186427D02*
X0006000Y0186427D01*
X0006000Y0188026D02*
X0229901Y0188026D01*
X0229901Y0189624D02*
X0006000Y0189624D01*
X0006000Y0191223D02*
X0009621Y0191223D01*
X0009508Y0191270D02*
X0011125Y0190600D01*
X0012875Y0190600D01*
X0014492Y0191270D01*
X0015730Y0192508D01*
X0016400Y0194125D01*
X0016400Y0201875D01*
X0015730Y0203492D01*
X0014492Y0204730D01*
X0012875Y0205400D01*
X0011125Y0205400D01*
X0009508Y0204730D01*
X0008270Y0203492D01*
X0007600Y0201875D01*
X0007600Y0194125D01*
X0008270Y0192508D01*
X0009508Y0191270D01*
X0008140Y0192821D02*
X0006000Y0192821D01*
X0006000Y0194420D02*
X0007600Y0194420D01*
X0007600Y0196018D02*
X0006000Y0196018D01*
X0006000Y0197617D02*
X0007600Y0197617D01*
X0007600Y0199215D02*
X0006000Y0199215D01*
X0006000Y0200814D02*
X0007600Y0200814D01*
X0007823Y0202412D02*
X0006000Y0202412D01*
X0006000Y0204011D02*
X0008788Y0204011D01*
X0006000Y0205609D02*
X0035922Y0205609D01*
X0036501Y0200814D02*
X0037200Y0200814D01*
X0037200Y0199215D02*
X0036400Y0199215D01*
X0036400Y0197617D02*
X0037200Y0197617D01*
X0037200Y0196018D02*
X0036400Y0196018D01*
X0036400Y0194420D02*
X0037232Y0194420D01*
X0037723Y0192821D02*
X0035860Y0192821D01*
X0034379Y0191223D02*
X0039033Y0191223D01*
X0041800Y0191223D02*
X0042200Y0191223D01*
X0042200Y0192821D02*
X0041800Y0192821D01*
X0041800Y0194420D02*
X0042200Y0194420D01*
X0042200Y0196018D02*
X0041800Y0196018D01*
X0041800Y0197617D02*
X0042200Y0197617D01*
X0046800Y0197617D02*
X0229901Y0197617D01*
X0229901Y0199215D02*
X0068997Y0199215D01*
X0070168Y0200814D02*
X0229901Y0200814D01*
X0229901Y0202412D02*
X0070381Y0202412D01*
X0069771Y0204011D02*
X0229901Y0204011D01*
X0229901Y0205609D02*
X0054530Y0205609D01*
X0056528Y0204011D02*
X0064229Y0204011D01*
X0065003Y0199215D02*
X0046800Y0199215D01*
X0046800Y0200814D02*
X0054441Y0200814D01*
X0052443Y0202412D02*
X0046588Y0202412D01*
X0045746Y0204011D02*
X0050445Y0204011D01*
X0046800Y0196018D02*
X0229901Y0196018D01*
X0229901Y0194420D02*
X0046768Y0194420D01*
X0046277Y0192821D02*
X0229901Y0192821D01*
X0229901Y0191223D02*
X0044967Y0191223D01*
X0029621Y0191223D02*
X0024379Y0191223D01*
X0024492Y0191270D02*
X0025730Y0192508D01*
X0026400Y0194125D01*
X0026400Y0201875D01*
X0025730Y0203492D01*
X0024492Y0204730D01*
X0022875Y0205400D01*
X0021125Y0205400D01*
X0019508Y0204730D01*
X0018270Y0203492D01*
X0017600Y0201875D01*
X0017600Y0194125D01*
X0018270Y0192508D01*
X0019508Y0191270D01*
X0021125Y0190600D01*
X0022875Y0190600D01*
X0024492Y0191270D01*
X0025860Y0192821D02*
X0028140Y0192821D01*
X0027600Y0194420D02*
X0026400Y0194420D01*
X0026400Y0196018D02*
X0027600Y0196018D01*
X0027600Y0197617D02*
X0026400Y0197617D01*
X0026400Y0199215D02*
X0027600Y0199215D01*
X0027600Y0200814D02*
X0026400Y0200814D01*
X0026177Y0202412D02*
X0027823Y0202412D01*
X0028788Y0204011D02*
X0025212Y0204011D01*
X0018788Y0204011D02*
X0015212Y0204011D01*
X0016177Y0202412D02*
X0017823Y0202412D01*
X0017600Y0200814D02*
X0016400Y0200814D01*
X0016400Y0199215D02*
X0017600Y0199215D01*
X0017600Y0197617D02*
X0016400Y0197617D01*
X0016400Y0196018D02*
X0017600Y0196018D01*
X0017600Y0194420D02*
X0016400Y0194420D01*
X0015860Y0192821D02*
X0018140Y0192821D01*
X0019621Y0191223D02*
X0014379Y0191223D01*
X0105844Y0112896D02*
X0133617Y0112896D01*
X0134384Y0111297D02*
X0107122Y0111297D01*
X0107381Y0109699D02*
X0132869Y0109699D01*
X0132348Y0108100D02*
X0123587Y0108100D01*
X0125185Y0106502D02*
X0132439Y0106502D01*
X0132426Y0106542D02*
X0132639Y0105888D01*
X0132951Y0105274D01*
X0133356Y0104717D01*
X0133843Y0104230D01*
X0134400Y0103825D01*
X0135014Y0103513D01*
X0135668Y0103300D01*
X0136349Y0103192D01*
X0136693Y0103192D01*
X0136693Y0107567D01*
X0136693Y0107567D01*
X0136693Y0107567D01*
X0132318Y0107567D01*
X0132318Y0107223D01*
X0132426Y0106542D01*
X0133221Y0104903D02*
X0126784Y0104903D01*
X0128382Y0103305D02*
X0135653Y0103305D01*
X0136693Y0103305D02*
X0136693Y0103305D01*
X0136693Y0104903D02*
X0136693Y0104903D01*
X0136693Y0106502D02*
X0136693Y0106502D01*
X0141038Y0108100D02*
X0142413Y0108100D01*
X0144012Y0109699D02*
X0140517Y0109699D01*
X0139001Y0111297D02*
X0145610Y0111297D01*
X0147100Y0112896D02*
X0139769Y0112896D01*
X0140603Y0114494D02*
X0147100Y0114494D01*
X0147100Y0116093D02*
X0140668Y0116093D01*
X0140063Y0117691D02*
X0147100Y0117691D01*
X0150900Y0117691D02*
X0219937Y0117691D01*
X0219332Y0116093D02*
X0150900Y0116093D01*
X0150900Y0114494D02*
X0219397Y0114494D01*
X0220231Y0112896D02*
X0150900Y0112896D01*
X0150900Y0111297D02*
X0221926Y0111297D01*
X0219888Y0109699D02*
X0149386Y0109699D01*
X0147787Y0108100D02*
X0219332Y0108100D01*
X0219446Y0106502D02*
X0146189Y0106502D01*
X0144590Y0104903D02*
X0220350Y0104903D01*
X0226265Y0104903D02*
X0229901Y0104903D01*
X0229901Y0103305D02*
X0142992Y0103305D01*
X0141393Y0101706D02*
X0229901Y0101706D01*
X0229901Y0100108D02*
X0139795Y0100108D01*
X0122667Y0100108D02*
X0109579Y0100108D01*
X0140088Y0136873D02*
X0219912Y0136873D01*
X0219332Y0138472D02*
X0140668Y0138472D01*
X0140578Y0140070D02*
X0219422Y0140070D01*
X0220292Y0141669D02*
X0139708Y0141669D01*
X0138221Y0143268D02*
X0221779Y0143268D01*
X0219863Y0144866D02*
X0140137Y0144866D01*
X0140668Y0146465D02*
X0219332Y0146465D01*
X0219471Y0148063D02*
X0140529Y0148063D01*
X0139590Y0149662D02*
X0220410Y0149662D01*
X0221493Y0151260D02*
X0138507Y0151260D01*
X0140186Y0152859D02*
X0219814Y0152859D01*
X0219332Y0154457D02*
X0140668Y0154457D01*
X0140480Y0156056D02*
X0219520Y0156056D01*
X0220529Y0157654D02*
X0139471Y0157654D01*
X0138793Y0159253D02*
X0221207Y0159253D01*
X0219764Y0160851D02*
X0140236Y0160851D01*
X0140668Y0162450D02*
X0219332Y0162450D01*
X0219569Y0164048D02*
X0140431Y0164048D01*
X0139352Y0165647D02*
X0220648Y0165647D01*
X0221000Y0167245D02*
X0139000Y0167245D01*
X0140285Y0168844D02*
X0219715Y0168844D01*
X0219332Y0170442D02*
X0140668Y0170442D01*
X0140381Y0172041D02*
X0219619Y0172041D01*
X0220766Y0173639D02*
X0139234Y0173639D01*
X0139119Y0175238D02*
X0220881Y0175238D01*
X0219666Y0176836D02*
X0140334Y0176836D01*
X0140668Y0178435D02*
X0219332Y0178435D01*
X0219668Y0180033D02*
X0140332Y0180033D01*
X0139115Y0181632D02*
X0220885Y0181632D01*
X0226441Y0133676D02*
X0229901Y0133676D01*
X0229901Y0132078D02*
X0227241Y0132078D01*
X0227282Y0130479D02*
X0229901Y0130479D01*
X0229901Y0128881D02*
X0226620Y0128881D01*
X0226677Y0117691D02*
X0229901Y0117691D01*
X0229901Y0116093D02*
X0227282Y0116093D01*
X0227217Y0114494D02*
X0229901Y0114494D01*
X0229901Y0112896D02*
X0226383Y0112896D01*
X0224688Y0111297D02*
X0229901Y0111297D01*
X0229901Y0109699D02*
X0226726Y0109699D01*
X0227282Y0108100D02*
X0229901Y0108100D01*
X0229901Y0106502D02*
X0227168Y0106502D01*
D14*
X0149000Y0121000D03*
X0124000Y0097000D03*
X0105000Y0102000D03*
X0104000Y0110000D03*
X0095000Y0114000D03*
X0091000Y0117000D03*
X0086000Y0121000D03*
X0102000Y0120000D03*
X0111000Y0128000D03*
X0095000Y0161000D03*
X0090000Y0159000D03*
X0059000Y0146000D03*
X0030000Y0128000D03*
X0030000Y0123000D03*
X0030000Y0118000D03*
X0030000Y0112000D03*
X0028000Y0090000D03*
X0034000Y0090000D03*
X0045000Y0083000D03*
X0051000Y0083000D03*
X0056000Y0081000D03*
X0067000Y0101000D03*
X0089000Y0082000D03*
X0094000Y0082000D03*
X0098000Y0059000D03*
X0132000Y0069000D03*
X0136000Y0065000D03*
X0143000Y0081000D03*
X0143000Y0087000D03*
X0164000Y0026000D03*
X0017000Y0076000D03*
X0013000Y0159000D03*
X0017000Y0179000D03*
X0035000Y0179000D03*
X0067000Y0202000D03*
X0128000Y0181000D03*
D15*
X0095000Y0161000D02*
X0095000Y0114000D01*
X0091000Y0117000D02*
X0091000Y0154000D01*
X0090000Y0155000D01*
X0090000Y0159000D01*
X0059000Y0146000D02*
X0059000Y0141000D01*
X0030000Y0112000D01*
X0025000Y0112000D01*
X0021000Y0108000D01*
X0012000Y0108000D01*
X0012000Y0118000D02*
X0030000Y0118000D01*
X0030000Y0123000D02*
X0022000Y0123000D01*
X0017000Y0128000D01*
X0012000Y0128000D01*
X0022000Y0128000D02*
X0030000Y0128000D01*
X0022000Y0128000D02*
X0012000Y0138000D01*
X0028000Y0090000D02*
X0028000Y0087000D01*
X0040000Y0075000D01*
X0040000Y0040000D01*
X0038000Y0038000D01*
X0038000Y0030000D01*
X0041000Y0027000D01*
X0056000Y0027000D01*
X0063000Y0034000D01*
X0070000Y0032000D02*
X0070000Y0041000D01*
X0070000Y0042000D01*
X0082000Y0054000D01*
X0087000Y0054000D01*
X0092000Y0059000D01*
X0094000Y0061000D01*
X0094000Y0082000D01*
X0110000Y0097000D02*
X0105000Y0102000D01*
X0107000Y0107000D02*
X0104000Y0110000D01*
X0107000Y0107000D02*
X0122000Y0107000D01*
X0128000Y0101000D01*
X0138000Y0101000D01*
X0149000Y0112000D01*
X0149000Y0121000D01*
X0124000Y0097000D02*
X0110000Y0097000D01*
X0102000Y0120000D02*
X0110000Y0128000D01*
X0111000Y0128000D01*
X0143000Y0087000D02*
X0145000Y0087000D01*
X0148000Y0084000D01*
X0148000Y0079000D01*
X0136000Y0067000D01*
X0136000Y0065000D01*
X0132000Y0069000D02*
X0132000Y0070000D01*
X0143000Y0081000D01*
X0098000Y0059000D02*
X0090000Y0051000D01*
X0083000Y0051000D01*
X0073000Y0041000D01*
X0073000Y0031000D01*
X0063000Y0021000D01*
X0063000Y0016000D01*
X0062000Y0024000D02*
X0070000Y0032000D01*
X0062000Y0024000D02*
X0047000Y0024000D01*
X0043000Y0020000D01*
X0043000Y0016000D01*
X0043000Y0034000D02*
X0043000Y0081000D01*
X0045000Y0083000D01*
X0047000Y0079000D02*
X0051000Y0083000D01*
X0047000Y0079000D02*
X0047000Y0042000D01*
X0053000Y0036000D01*
X0053000Y0034000D01*
X0032000Y0198000D02*
X0032000Y0199000D01*
X0039000Y0206000D01*
X0051000Y0206000D01*
X0056000Y0202000D01*
X0067000Y0202000D01*
M02*
