G75*
%MOIN*%
%OFA0B0*%
%FSLAX25Y25*%
%IPPOS*%
%LPD*%
%AMOC8*
5,1,8,0,0,1.08239X$1,22.5*
%
%ADD10R,0.05118X0.05906*%
%ADD11R,0.05906X0.05118*%
%ADD12R,0.02165X0.04724*%
%ADD13C,0.06000*%
%ADD14OC8,0.06000*%
%ADD15R,0.04724X0.04724*%
%ADD16R,0.21000X0.07600*%
%ADD17R,0.04331X0.03937*%
%ADD18R,0.07000X0.06300*%
%ADD19R,0.08012X0.01575*%
%ADD20R,0.01575X0.08012*%
%ADD21C,0.05150*%
%ADD22R,0.03937X0.04331*%
%ADD23R,0.02756X0.03543*%
%ADD24R,0.03543X0.02756*%
%ADD25C,0.01000*%
%ADD26C,0.01600*%
%ADD27C,0.03962*%
%ADD28C,0.03000*%
D10*
X0127654Y0188000D03*
X0134346Y0188000D03*
X0134346Y0197000D03*
X0127654Y0197000D03*
D11*
X0028000Y0104046D03*
X0028000Y0097354D03*
D12*
X0031260Y0173881D03*
X0038740Y0173881D03*
X0038740Y0184119D03*
X0035000Y0184119D03*
X0031260Y0184119D03*
X0020740Y0184119D03*
X0017000Y0184119D03*
X0013260Y0184119D03*
X0013260Y0173881D03*
X0020740Y0173881D03*
D13*
X0013000Y0019000D02*
X0013000Y0013000D01*
X0023000Y0013000D02*
X0023000Y0019000D01*
X0033000Y0019000D02*
X0033000Y0013000D01*
X0043000Y0013000D02*
X0043000Y0019000D01*
X0053000Y0019000D02*
X0053000Y0013000D01*
X0063000Y0013000D02*
X0063000Y0019000D01*
X0073000Y0019000D02*
X0073000Y0013000D01*
X0079000Y0031000D02*
X0079000Y0037000D01*
X0089000Y0037000D02*
X0089000Y0031000D01*
X0099000Y0031000D02*
X0099000Y0037000D01*
X0109000Y0037000D02*
X0109000Y0031000D01*
X0119000Y0031000D02*
X0119000Y0037000D01*
X0129000Y0037000D02*
X0129000Y0031000D01*
X0139000Y0031000D02*
X0139000Y0037000D01*
X0149000Y0037000D02*
X0149000Y0031000D01*
X0159000Y0031000D02*
X0159000Y0037000D01*
X0121000Y0139000D02*
X0121000Y0145000D01*
X0111000Y0145000D02*
X0111000Y0139000D01*
X0101000Y0139000D02*
X0101000Y0145000D01*
X0042000Y0195000D02*
X0042000Y0201000D01*
X0032000Y0201000D02*
X0032000Y0195000D01*
X0022000Y0195000D02*
X0022000Y0201000D01*
X0012000Y0201000D02*
X0012000Y0195000D01*
X0015000Y0148000D02*
X0009000Y0148000D01*
X0009000Y0138000D02*
X0015000Y0138000D01*
X0015000Y0128000D02*
X0009000Y0128000D01*
X0009000Y0118000D02*
X0015000Y0118000D01*
X0015000Y0108000D02*
X0009000Y0108000D01*
X0009000Y0098000D02*
X0015000Y0098000D01*
D14*
X0013000Y0034000D03*
X0023000Y0034000D03*
X0033000Y0034000D03*
X0043000Y0034000D03*
X0053000Y0034000D03*
X0063000Y0034000D03*
D15*
X0171000Y0034134D03*
X0179000Y0034134D03*
X0187000Y0034134D03*
X0195000Y0034134D03*
X0203000Y0034134D03*
X0211000Y0034134D03*
X0211000Y0025866D03*
X0203000Y0025866D03*
X0195000Y0025866D03*
X0187000Y0025866D03*
X0179000Y0025866D03*
X0171000Y0025866D03*
D16*
X0058000Y0061000D03*
X0020000Y0061000D03*
D17*
X0083654Y0060000D03*
X0090346Y0060000D03*
X0171000Y0048346D03*
X0171000Y0041654D03*
X0179000Y0041654D03*
X0179000Y0048346D03*
X0187000Y0048346D03*
X0187000Y0041654D03*
X0195000Y0041654D03*
X0195000Y0048346D03*
X0203000Y0048346D03*
X0203000Y0041654D03*
X0211000Y0041654D03*
X0211000Y0048346D03*
X0059000Y0155654D03*
X0059000Y0162346D03*
X0020346Y0167000D03*
X0013654Y0167000D03*
D18*
X0059850Y0171150D03*
X0059850Y0190850D03*
X0114150Y0190850D03*
X0114150Y0171150D03*
D19*
X0113697Y0116748D03*
X0113697Y0113598D03*
X0113697Y0110449D03*
X0113697Y0107299D03*
X0113697Y0104150D03*
X0113697Y0101000D03*
X0113697Y0097850D03*
X0113697Y0094701D03*
X0113697Y0091551D03*
X0113697Y0088402D03*
X0113697Y0085252D03*
X0058303Y0085252D03*
X0058303Y0088402D03*
X0058303Y0091551D03*
X0058303Y0094701D03*
X0058303Y0097850D03*
X0058303Y0101000D03*
X0058303Y0104150D03*
X0058303Y0107299D03*
X0058303Y0110449D03*
X0058303Y0113598D03*
X0058303Y0116748D03*
D20*
X0070252Y0128697D03*
X0073402Y0128697D03*
X0076551Y0128697D03*
X0079701Y0128697D03*
X0082850Y0128697D03*
X0086000Y0128697D03*
X0089150Y0128697D03*
X0092299Y0128697D03*
X0095449Y0128697D03*
X0098598Y0128697D03*
X0101748Y0128697D03*
X0101748Y0073303D03*
X0098598Y0073303D03*
X0095449Y0073303D03*
X0092299Y0073303D03*
X0089150Y0073303D03*
X0086000Y0073303D03*
X0082850Y0073303D03*
X0079701Y0073303D03*
X0076551Y0073303D03*
X0073402Y0073303D03*
X0070252Y0073303D03*
D21*
X0136693Y0107567D03*
X0136693Y0115441D03*
X0136693Y0123315D03*
X0136693Y0131189D03*
X0136693Y0139063D03*
X0136693Y0146937D03*
X0136693Y0154811D03*
X0136693Y0162685D03*
X0136693Y0170559D03*
X0136693Y0178433D03*
X0223307Y0178433D03*
X0223307Y0170559D03*
X0223307Y0162685D03*
X0223307Y0154811D03*
X0223307Y0146937D03*
X0223307Y0139063D03*
X0223307Y0131189D03*
X0223307Y0123315D03*
X0223307Y0115441D03*
X0223307Y0107567D03*
D22*
X0089000Y0140654D03*
X0089000Y0147346D03*
X0045000Y0173654D03*
X0045000Y0180346D03*
X0041000Y0100346D03*
X0041000Y0093654D03*
D23*
X0050441Y0076000D03*
X0055559Y0076000D03*
X0027559Y0076000D03*
X0022441Y0076000D03*
D24*
X0026000Y0173441D03*
X0026000Y0178559D03*
X0008000Y0178559D03*
X0008000Y0173441D03*
D25*
X0010805Y0180459D02*
X0010227Y0181037D01*
X0010000Y0181037D01*
X0010000Y0190969D01*
X0010273Y0190830D01*
X0010946Y0190611D01*
X0011500Y0190523D01*
X0011500Y0191000D01*
X0012500Y0191000D01*
X0012500Y0190523D01*
X0013054Y0190611D01*
X0013727Y0190830D01*
X0014062Y0191000D01*
X0020943Y0191000D01*
X0021184Y0190900D01*
X0022816Y0190900D01*
X0023057Y0191000D01*
X0030943Y0191000D01*
X0031184Y0190900D01*
X0032816Y0190900D01*
X0033057Y0191000D01*
X0040943Y0191000D01*
X0041184Y0190900D01*
X0042000Y0190900D01*
X0042000Y0183036D01*
X0041931Y0182967D01*
X0041931Y0180000D01*
X0037921Y0180000D01*
X0037815Y0180256D01*
X0038699Y0180256D01*
X0038699Y0184077D01*
X0038781Y0184077D01*
X0038781Y0180256D01*
X0040020Y0180256D01*
X0040402Y0180359D01*
X0040744Y0180556D01*
X0041023Y0180835D01*
X0041221Y0181177D01*
X0041323Y0181559D01*
X0041323Y0184077D01*
X0038782Y0184077D01*
X0038782Y0184160D01*
X0041323Y0184160D01*
X0041323Y0186678D01*
X0041221Y0187060D01*
X0041023Y0187402D01*
X0040744Y0187681D01*
X0040402Y0187878D01*
X0040020Y0187981D01*
X0038781Y0187981D01*
X0038781Y0184160D01*
X0038699Y0184160D01*
X0038699Y0187981D01*
X0037460Y0187981D01*
X0037078Y0187878D01*
X0036736Y0187681D01*
X0036587Y0187532D01*
X0036538Y0187581D01*
X0033462Y0187581D01*
X0033413Y0187532D01*
X0033264Y0187681D01*
X0032921Y0187878D01*
X0032540Y0187981D01*
X0031301Y0187981D01*
X0031301Y0184160D01*
X0031218Y0184160D01*
X0031218Y0184077D01*
X0028677Y0184077D01*
X0028677Y0181559D01*
X0028779Y0181177D01*
X0028977Y0180835D01*
X0029256Y0180556D01*
X0029424Y0180459D01*
X0028805Y0180459D01*
X0028227Y0181037D01*
X0023773Y0181037D01*
X0023128Y0180393D01*
X0023128Y0180000D01*
X0019921Y0180000D01*
X0019815Y0180256D01*
X0020699Y0180256D01*
X0020699Y0184077D01*
X0020781Y0184077D01*
X0020781Y0180256D01*
X0022020Y0180256D01*
X0022402Y0180359D01*
X0022744Y0180556D01*
X0023023Y0180835D01*
X0023221Y0181177D01*
X0023323Y0181559D01*
X0023323Y0184077D01*
X0020782Y0184077D01*
X0020782Y0184160D01*
X0023323Y0184160D01*
X0023323Y0186678D01*
X0023221Y0187060D01*
X0023023Y0187402D01*
X0022744Y0187681D01*
X0022402Y0187878D01*
X0022020Y0187981D01*
X0020781Y0187981D01*
X0020781Y0184160D01*
X0020699Y0184160D01*
X0020699Y0187981D01*
X0019460Y0187981D01*
X0019078Y0187878D01*
X0018736Y0187681D01*
X0018587Y0187532D01*
X0018538Y0187581D01*
X0015462Y0187581D01*
X0015413Y0187532D01*
X0015264Y0187681D01*
X0014921Y0187878D01*
X0014540Y0187981D01*
X0013301Y0187981D01*
X0013301Y0184160D01*
X0013218Y0184160D01*
X0013218Y0184077D01*
X0010677Y0184077D01*
X0010677Y0181559D01*
X0010779Y0181177D01*
X0010977Y0180835D01*
X0011256Y0180556D01*
X0011424Y0180459D01*
X0010805Y0180459D01*
X0010532Y0180732D02*
X0011080Y0180732D01*
X0010677Y0181731D02*
X0010000Y0181731D01*
X0010000Y0182729D02*
X0010677Y0182729D01*
X0010677Y0183728D02*
X0010000Y0183728D01*
X0010677Y0184160D02*
X0013218Y0184160D01*
X0013218Y0187981D01*
X0011980Y0187981D01*
X0011598Y0187878D01*
X0011256Y0187681D01*
X0010977Y0187402D01*
X0010779Y0187060D01*
X0010677Y0186678D01*
X0010677Y0184160D01*
X0010677Y0184726D02*
X0010000Y0184726D01*
X0010000Y0185725D02*
X0010677Y0185725D01*
X0010689Y0186723D02*
X0010000Y0186723D01*
X0010000Y0187722D02*
X0011327Y0187722D01*
X0010000Y0188720D02*
X0042000Y0188720D01*
X0042000Y0187722D02*
X0040673Y0187722D01*
X0041311Y0186723D02*
X0042000Y0186723D01*
X0042000Y0185725D02*
X0041323Y0185725D01*
X0041323Y0184726D02*
X0042000Y0184726D01*
X0042000Y0183728D02*
X0041323Y0183728D01*
X0041323Y0182729D02*
X0041931Y0182729D01*
X0041931Y0181731D02*
X0041323Y0181731D01*
X0040920Y0180732D02*
X0041931Y0180732D01*
X0038781Y0180732D02*
X0038699Y0180732D01*
X0038699Y0181731D02*
X0038781Y0181731D01*
X0038781Y0182729D02*
X0038699Y0182729D01*
X0038699Y0183728D02*
X0038781Y0183728D01*
X0038781Y0184726D02*
X0038699Y0184726D01*
X0038699Y0185725D02*
X0038781Y0185725D01*
X0038781Y0186723D02*
X0038699Y0186723D01*
X0038699Y0187722D02*
X0038781Y0187722D01*
X0036807Y0187722D02*
X0033193Y0187722D01*
X0031301Y0187722D02*
X0031218Y0187722D01*
X0031218Y0187981D02*
X0029980Y0187981D01*
X0029598Y0187878D01*
X0029256Y0187681D01*
X0028977Y0187402D01*
X0028779Y0187060D01*
X0028677Y0186678D01*
X0028677Y0184160D01*
X0031218Y0184160D01*
X0031218Y0187981D01*
X0031218Y0186723D02*
X0031301Y0186723D01*
X0031301Y0185725D02*
X0031218Y0185725D01*
X0031218Y0184726D02*
X0031301Y0184726D01*
X0028677Y0184726D02*
X0023323Y0184726D01*
X0023323Y0183728D02*
X0028677Y0183728D01*
X0028677Y0182729D02*
X0023323Y0182729D01*
X0023323Y0181731D02*
X0028677Y0181731D01*
X0028532Y0180732D02*
X0029080Y0180732D01*
X0028677Y0185725D02*
X0023323Y0185725D01*
X0023311Y0186723D02*
X0028689Y0186723D01*
X0029327Y0187722D02*
X0022673Y0187722D01*
X0020781Y0187722D02*
X0020699Y0187722D01*
X0020699Y0186723D02*
X0020781Y0186723D01*
X0020781Y0185725D02*
X0020699Y0185725D01*
X0020699Y0184726D02*
X0020781Y0184726D01*
X0020781Y0183728D02*
X0020699Y0183728D01*
X0020699Y0182729D02*
X0020781Y0182729D01*
X0020781Y0181731D02*
X0020699Y0181731D01*
X0020699Y0180732D02*
X0020781Y0180732D01*
X0022920Y0180732D02*
X0023468Y0180732D01*
X0018807Y0187722D02*
X0015193Y0187722D01*
X0013301Y0187722D02*
X0013218Y0187722D01*
X0013218Y0186723D02*
X0013301Y0186723D01*
X0013301Y0185725D02*
X0013218Y0185725D01*
X0013218Y0184726D02*
X0013301Y0184726D01*
X0010000Y0189719D02*
X0042000Y0189719D01*
X0042000Y0190717D02*
X0013381Y0190717D01*
X0012500Y0190717D02*
X0011500Y0190717D01*
X0010619Y0190717D02*
X0010000Y0190717D01*
X0022000Y0198000D02*
X0022000Y0203000D01*
X0025000Y0206000D01*
X0079000Y0206000D01*
X0093000Y0192000D01*
X0093000Y0163000D01*
X0095000Y0161000D01*
X0090000Y0159000D02*
X0090000Y0191000D01*
X0079000Y0202000D01*
X0067000Y0202000D01*
X0061850Y0171150D02*
X0059850Y0171150D01*
X0059000Y0170300D01*
X0059000Y0162346D01*
X0065000Y0168000D02*
X0065000Y0152000D01*
X0059000Y0146000D01*
X0082850Y0128697D02*
X0082850Y0110150D01*
X0091000Y0102000D01*
X0105000Y0102000D01*
X0104000Y0110000D02*
X0098598Y0115402D01*
X0098598Y0128697D01*
X0095449Y0128697D02*
X0095449Y0114449D01*
X0095000Y0114000D01*
X0091000Y0117000D02*
X0092299Y0118299D01*
X0092299Y0128697D01*
X0086000Y0128697D02*
X0086000Y0121000D01*
X0086000Y0128697D02*
X0086000Y0131000D01*
X0101748Y0128697D02*
X0102000Y0128445D01*
X0102000Y0120000D01*
X0107000Y0116000D02*
X0107000Y0129000D01*
X0111000Y0133000D01*
X0111000Y0142000D01*
X0116000Y0133000D02*
X0111000Y0128000D01*
X0116000Y0133000D02*
X0123000Y0133000D01*
X0129063Y0139063D01*
X0136693Y0139063D01*
X0151315Y0123315D02*
X0149000Y0121000D01*
X0151315Y0123315D02*
X0223307Y0123315D01*
X0187000Y0060000D02*
X0158000Y0060000D01*
X0124000Y0094000D01*
X0124000Y0097000D01*
X0120299Y0094701D02*
X0157000Y0058000D01*
X0186000Y0058000D01*
X0190000Y0054000D01*
X0200000Y0054000D01*
X0203000Y0051000D01*
X0203000Y0048346D01*
X0211000Y0048346D02*
X0211000Y0052000D01*
X0207000Y0056000D01*
X0191000Y0056000D01*
X0187000Y0060000D01*
X0185000Y0056000D02*
X0189000Y0052000D01*
X0194000Y0052000D01*
X0195000Y0051000D01*
X0195000Y0048346D01*
X0187000Y0048346D02*
X0187000Y0051000D01*
X0184000Y0054000D01*
X0155000Y0054000D01*
X0120598Y0088402D01*
X0113697Y0088402D01*
X0113697Y0085252D02*
X0120748Y0085252D01*
X0154000Y0052000D01*
X0176000Y0052000D01*
X0179000Y0049000D01*
X0179000Y0048346D01*
X0185000Y0056000D02*
X0156000Y0056000D01*
X0120449Y0091551D01*
X0113697Y0091551D01*
X0113697Y0094701D02*
X0120299Y0094701D01*
X0124000Y0101000D02*
X0113697Y0101000D01*
X0113697Y0097850D02*
X0091850Y0097850D01*
X0091000Y0097000D01*
X0094000Y0082000D02*
X0092299Y0080299D01*
X0092299Y0073303D01*
X0095449Y0073303D02*
X0095449Y0061551D01*
X0098000Y0059000D01*
X0111000Y0048000D02*
X0118000Y0055000D01*
X0117500Y0054500D02*
X0132000Y0069000D01*
X0136000Y0065000D02*
X0134000Y0063000D01*
X0129000Y0063000D01*
X0112000Y0046000D01*
X0079000Y0046000D01*
X0074000Y0051000D01*
X0074000Y0067000D01*
X0073402Y0067598D01*
X0073402Y0073303D01*
X0076551Y0073303D02*
X0076551Y0051449D01*
X0080000Y0048000D01*
X0111000Y0048000D01*
X0112000Y0044000D02*
X0114000Y0042000D01*
X0121000Y0042000D01*
X0129000Y0034000D01*
X0119000Y0034000D02*
X0111000Y0042000D01*
X0077000Y0042000D01*
X0070000Y0049000D01*
X0070000Y0065000D01*
X0068000Y0067000D01*
X0068000Y0074000D01*
X0058303Y0083697D01*
X0058303Y0085252D01*
X0058303Y0088402D02*
X0053402Y0088402D01*
X0051000Y0086000D01*
X0051000Y0083000D01*
X0046000Y0084000D02*
X0045000Y0083000D01*
X0046000Y0084000D02*
X0046000Y0085000D01*
X0052551Y0091551D01*
X0058303Y0091551D01*
X0058303Y0094701D02*
X0051701Y0094701D01*
X0041000Y0084000D01*
X0041000Y0078000D01*
X0043000Y0076000D01*
X0050441Y0076000D01*
X0050441Y0061559D01*
X0051000Y0061000D01*
X0058000Y0061000D01*
X0070252Y0067748D02*
X0072000Y0066000D01*
X0072000Y0050000D01*
X0078000Y0044000D01*
X0112000Y0044000D01*
X0070252Y0067748D02*
X0070252Y0073303D01*
X0055559Y0076000D02*
X0055559Y0080559D01*
X0056000Y0081000D01*
X0058303Y0097850D02*
X0051850Y0097850D01*
X0036000Y0082000D01*
X0030000Y0082000D01*
X0028000Y0080000D01*
X0028000Y0076441D01*
X0027559Y0076000D01*
X0027559Y0062559D01*
X0026000Y0061000D01*
X0020000Y0061000D01*
X0022441Y0076000D02*
X0017000Y0076000D01*
X0028000Y0090000D02*
X0028000Y0097354D01*
X0028000Y0104046D02*
X0028000Y0108000D01*
X0030000Y0110000D01*
X0030000Y0112000D01*
X0031253Y0107299D02*
X0058303Y0107299D01*
X0058303Y0110449D02*
X0037551Y0110449D01*
X0030000Y0118000D01*
X0030000Y0123000D02*
X0039402Y0113598D01*
X0058303Y0113598D01*
X0058303Y0116748D02*
X0041252Y0116748D01*
X0030000Y0128000D01*
X0031253Y0107299D02*
X0028000Y0104046D01*
X0065000Y0168000D02*
X0061850Y0171150D01*
X0113697Y0116748D02*
X0135386Y0116748D01*
X0136693Y0115441D01*
X0136693Y0107567D02*
X0130567Y0107567D01*
X0124000Y0101000D01*
X0113697Y0113598D02*
X0109402Y0113598D01*
X0107000Y0116000D01*
X0143000Y0087000D02*
X0143000Y0156378D01*
X0136693Y0162685D01*
X0136693Y0170559D02*
X0137441Y0170559D01*
X0145000Y0163000D01*
X0145000Y0091000D01*
X0147000Y0089000D01*
X0147000Y0082000D01*
X0146000Y0081000D01*
X0143000Y0081000D01*
X0164000Y0026000D02*
X0171134Y0026000D01*
X0171000Y0025866D01*
X0127654Y0188000D02*
X0127654Y0197000D01*
D26*
X0134000Y0197346D02*
X0134000Y0201000D01*
X0132000Y0203000D01*
X0124000Y0203000D01*
X0120000Y0199000D01*
X0120000Y0164000D01*
X0111000Y0155000D01*
X0076000Y0155000D01*
X0068000Y0163000D01*
X0068000Y0174000D01*
X0065000Y0177000D01*
X0061000Y0177000D01*
X0062000Y0177000D01*
X0061000Y0177000D02*
X0056000Y0177000D01*
X0052654Y0173654D01*
X0045000Y0173654D01*
X0038968Y0173654D01*
X0038740Y0173881D01*
X0034559Y0178559D02*
X0035000Y0179000D01*
X0035000Y0184119D01*
X0034559Y0178559D02*
X0026000Y0178559D01*
X0026441Y0173881D02*
X0026000Y0173441D01*
X0026441Y0173881D02*
X0031260Y0173881D01*
X0020740Y0173881D02*
X0020740Y0167394D01*
X0020346Y0167000D01*
X0013654Y0167000D02*
X0013654Y0159654D01*
X0013000Y0159000D01*
X0008000Y0173441D02*
X0008441Y0173881D01*
X0013260Y0173881D01*
X0016559Y0178559D02*
X0008000Y0178559D01*
X0013260Y0184119D02*
X0013260Y0191740D01*
X0012000Y0193000D01*
X0012000Y0198000D01*
X0017000Y0184119D02*
X0017000Y0179000D01*
X0016559Y0178559D01*
X0042000Y0198000D02*
X0046000Y0198000D01*
X0053150Y0190850D01*
X0059850Y0190850D01*
X0045000Y0195000D02*
X0045000Y0180346D01*
X0045000Y0195000D02*
X0042000Y0198000D01*
X0059000Y0155654D02*
X0059000Y0151000D01*
X0053000Y0145000D01*
X0048000Y0145000D01*
X0043000Y0140000D01*
X0039000Y0140000D01*
X0060000Y0140000D02*
X0071000Y0140000D01*
X0083000Y0152000D01*
X0111000Y0152000D01*
X0121000Y0142000D01*
X0101000Y0142000D02*
X0095654Y0147346D01*
X0089000Y0147346D01*
X0089000Y0140654D02*
X0089150Y0140504D01*
X0089150Y0128697D01*
X0067000Y0101000D02*
X0058303Y0101000D01*
X0058154Y0104000D02*
X0058303Y0104150D01*
X0058154Y0104000D02*
X0050000Y0104000D01*
X0046000Y0100000D01*
X0046000Y0096000D01*
X0043654Y0093654D01*
X0041000Y0093654D01*
X0041000Y0100346D02*
X0035346Y0100346D01*
X0034000Y0099000D01*
X0034000Y0090000D01*
X0022000Y0097000D02*
X0007000Y0082000D01*
X0007000Y0029000D01*
X0012000Y0024000D01*
X0139000Y0024000D01*
X0144500Y0029500D01*
X0144500Y0043500D01*
X0150000Y0049000D01*
X0170346Y0049000D01*
X0171000Y0048346D01*
X0171000Y0041654D02*
X0171000Y0034134D01*
X0179000Y0034134D02*
X0179000Y0041654D01*
X0187000Y0041654D02*
X0187000Y0034134D01*
X0195000Y0034134D02*
X0195000Y0041654D01*
X0203000Y0041654D02*
X0203000Y0034134D01*
X0211000Y0034134D02*
X0211000Y0041654D01*
X0211000Y0025866D02*
X0203000Y0025866D01*
X0195000Y0025866D01*
X0187000Y0025866D01*
X0179000Y0025866D01*
X0171000Y0025866D02*
X0211000Y0025866D01*
X0149000Y0034000D02*
X0144500Y0029500D01*
X0090346Y0060000D02*
X0089150Y0061197D01*
X0089150Y0073303D01*
X0089150Y0082000D01*
X0089000Y0082000D01*
X0086000Y0073303D02*
X0086000Y0067000D01*
X0083654Y0064654D01*
X0083654Y0060000D01*
X0083654Y0058654D01*
X0083000Y0058000D01*
X0013000Y0016000D02*
X0007000Y0022000D01*
X0007000Y0029000D01*
X0136693Y0178433D02*
X0134346Y0180780D01*
X0134346Y0188000D01*
X0134346Y0197000D01*
X0134000Y0197346D01*
X0127654Y0188000D02*
X0127654Y0181346D01*
X0128000Y0181000D01*
D27*
X0128000Y0181000D03*
X0095000Y0161000D03*
X0090000Y0159000D03*
X0059000Y0146000D03*
X0086000Y0121000D03*
X0091000Y0117000D03*
X0095000Y0114000D03*
X0102000Y0120000D03*
X0111000Y0128000D03*
X0104000Y0110000D03*
X0105000Y0102000D03*
X0124000Y0097000D03*
X0143000Y0087000D03*
X0143000Y0081000D03*
X0132000Y0069000D03*
X0136000Y0065000D03*
X0098000Y0059000D03*
X0094000Y0082000D03*
X0089000Y0082000D03*
X0067000Y0101000D03*
X0051000Y0083000D03*
X0056000Y0081000D03*
X0045000Y0083000D03*
X0034000Y0090000D03*
X0028000Y0090000D03*
X0017000Y0076000D03*
X0030000Y0112000D03*
X0030000Y0118000D03*
X0030000Y0123000D03*
X0030000Y0128000D03*
X0013000Y0159000D03*
X0017000Y0179000D03*
X0035000Y0179000D03*
X0067000Y0202000D03*
X0149000Y0121000D03*
X0164000Y0026000D03*
D28*
X0106000Y0061000D02*
X0106000Y0082000D01*
X0091000Y0097000D01*
X0048000Y0140000D01*
X0039000Y0140000D01*
X0032000Y0140000D01*
X0022000Y0150000D01*
X0020346Y0151654D01*
X0020346Y0167000D01*
X0022000Y0150000D02*
X0022000Y0104000D01*
X0016000Y0098000D01*
X0012000Y0098000D01*
X0022000Y0097000D02*
X0022000Y0089000D01*
X0026000Y0085000D01*
X0035000Y0085000D01*
X0041000Y0091000D01*
X0041000Y0093654D01*
X0022000Y0097000D02*
X0022000Y0104000D01*
X0048000Y0140000D02*
X0060000Y0140000D01*
X0088346Y0140000D01*
X0089000Y0140654D01*
X0106000Y0061000D02*
X0099000Y0054000D01*
X0087000Y0054000D01*
X0083000Y0058000D01*
M02*
